<?xml version="1.0" encoding="UTF-8" standalone="no"?>
<svg
   xmlns:dc="http://purl.org/dc/elements/1.1/"
   xmlns:cc="http://creativecommons.org/ns#"
   xmlns:rdf="http://www.w3.org/1999/02/22-rdf-syntax-ns#"
   xmlns:svg="http://www.w3.org/2000/svg"
   xmlns="http://www.w3.org/2000/svg"
   id="svg250"
   version="1.2"
   viewBox="0 0 564.276 117"
   height="117"
   width="564.276">
  <metadata
     id="metadata256">
    <rdf:RDF>
      <cc:Work
         rdf:about="">
        <dc:format>image/svg+xml</dc:format>
        <dc:type
           rdf:resource="http://purl.org/dc/dcmitype/StillImage" />
        <dc:title>random-allRange</dc:title>
      </cc:Work>
    </rdf:RDF>
  </metadata>
  <defs
     id="defs254" />
  <title
     id="title2">random-allRange</title>
  <desc
     id="desc4">Generated by MuseScore 2.1.0</desc>
  <polyline
     style="fill:none;stroke:#000000;stroke-width:0.40000001;stroke-linejoin:bevel"
     transform="translate(-12.485657,7.3045889)"
     id="polyline6"
     points="28.3465,63.3465 566.929,63.3465"
     class="StaffLines" />
  <polyline
     style="fill:none;stroke:#000000;stroke-width:0.40000001;stroke-linejoin:bevel"
     transform="translate(-12.485657,7.3045889)"
     id="polyline8"
     points="28.3465,68.3465 566.929,68.3465"
     class="StaffLines" />
  <polyline
     style="fill:none;stroke:#000000;stroke-width:0.40000001;stroke-linejoin:bevel"
     transform="translate(-12.485657,7.3045889)"
     id="polyline10"
     points="28.3465,73.3465 566.929,73.3465"
     class="StaffLines" />
  <polyline
     style="fill:none;stroke:#000000;stroke-width:0.40000001;stroke-linejoin:bevel"
     transform="translate(-12.485657,7.3045889)"
     id="polyline12"
     points="28.3465,78.3465 566.929,78.3465"
     class="StaffLines" />
  <polyline
     style="fill:none;stroke:#000000;stroke-width:0.40000001;stroke-linejoin:bevel"
     transform="translate(-12.485657,7.3045889)"
     id="polyline14"
     points="28.3465,83.3465 566.929,83.3465"
     class="StaffLines" />
  <path
     style="fill-rule:evenodd;stroke:#000000;stroke-width:0.34999999;stroke-linecap:round;stroke-linejoin:round"
     id="path16"
     d="m 435.37334,34.401089 c 10.325,-6.9 41.303,-6.9 51.629,0 -10.326,-6.1 -41.304,-6.1 -51.629,0"
     class="SlurSegment" />
  <path
     style="fill-rule:evenodd;stroke:#000000;stroke-width:0.34999999;stroke-linecap:round;stroke-linejoin:round"
     id="path18"
     d="m 413.48434,34.401089 c 3.784,-3.2755 15.134,-3.2755 18.918,0 -3.784,-2.4755 -15.134,-2.4755 -18.918,0"
     class="SlurSegment" />
  <path
     style="fill-rule:evenodd;stroke:#000000;stroke-width:0.34999999;stroke-linecap:round;stroke-linejoin:round"
     id="path20"
     d="m 347.56934,66.901089 c 7.743,-6.2845 30.971,-6.2845 38.714,0 -7.743,-5.4845 -30.971,-5.4845 -38.714,0"
     class="SlurSegment" />
  <path
     style="fill-rule:evenodd;stroke:#000000;stroke-width:0.34999999;stroke-linecap:round;stroke-linejoin:round"
     id="path22"
     d="m 303.69534,66.901089 c 8.358,-6.7523 33.433,-6.7523 41.791,0 -8.358,-5.9523 -33.433,-5.9523 -41.791,0"
     class="SlurSegment" />
  <path
     style="fill-rule:evenodd;stroke:#000000;stroke-width:0.34999999;stroke-linecap:round;stroke-linejoin:round"
     id="path24"
     d="m 280.79734,66.901089 c 4.163,-3.5638 16.652,-3.5638 20.815,0 -4.163,-2.7638 -16.652,-2.7638 -20.815,0"
     class="SlurSegment" />
  <path
     style="fill-rule:evenodd;stroke:#000000;stroke-width:0.34999999;stroke-linecap:round;stroke-linejoin:round"
     id="path26"
     d="m 221.87534,88.567889 c 8.784,-6.9 35.138,-6.9 43.922,0 -8.784,-6.1 -35.138,-6.1 -43.922,0"
     class="SlurSegment" />
  <path
     style="fill-rule:evenodd;stroke:#000000;stroke-width:0.34999999;stroke-linecap:round;stroke-linejoin:round"
     id="path28"
     d="m 142.53834,14.401049 c 10.326,-6.9000101 41.303,-6.9000101 51.629,0 -10.326,-6.1000103 -41.303,-6.1000103 -51.629,0"
     class="SlurSegment" />
  <path
     style="fill-rule:evenodd;stroke:#000000;stroke-width:0.34999999;stroke-linecap:round;stroke-linejoin:round"
     id="path30"
     d="m 116.95234,14.401049 c 4.523,-3.83747 18.092,-3.83747 22.615,0 -4.523,-3.03747 -18.092,-3.03747 -22.615,0"
     class="SlurSegment" />
  <path
     style="fill-rule:evenodd;stroke:#000000;stroke-width:0.34999999;stroke-linecap:round;stroke-linejoin:round"
     id="path32"
     d="m 57.961743,49.401089 c 8.0776,-6.539 32.310596,-6.539 40.387596,0 -8.077,-5.739 -32.309996,-5.739 -40.387596,0"
     class="SlurSegment" />
  <polyline
     style="stroke:#000000;stroke-width:0.80000001;stroke-linejoin:bevel"
     transform="translate(-12.485657,7.3045889)"
     id="polyline34"
     points="566.529,63.3465 566.529,83.3465"
     class="BarLine" />
  <polyline
     style="stroke:#000000;stroke-width:0.80000001;stroke-linejoin:bevel"
     transform="translate(-12.485657,7.3045889)"
     id="polyline36"
     points="490.784,63.3465 490.784,83.3465"
     class="BarLine" />
  <polyline
     style="stroke:#000000;stroke-width:0.80000001;stroke-linejoin:bevel"
     transform="translate(-12.485657,7.3045889)"
     id="polyline38"
     points="435.022,63.3465 435.022,83.3465"
     class="BarLine" />
  <polyline
     style="stroke:#000000;stroke-width:0.80000001;stroke-linejoin:bevel"
     transform="translate(-12.485657,7.3045889)"
     id="polyline40"
     points="349.141,63.3465 349.141,83.3465"
     class="BarLine" />
  <polyline
     style="stroke:#000000;stroke-width:0.80000001;stroke-linejoin:bevel"
     transform="translate(-12.485657,7.3045889)"
     id="polyline42"
     points="270.896,63.3465 270.896,83.3465"
     class="BarLine" />
  <polyline
     style="stroke:#000000;stroke-width:0.80000001;stroke-linejoin:bevel"
     transform="translate(-12.485657,7.3045889)"
     id="polyline44"
     points="197.949,63.3465 197.949,83.3465"
     class="BarLine" />
  <polyline
     style="stroke:#000000;stroke-width:0.80000001;stroke-linejoin:bevel"
     transform="translate(-12.485657,7.3045889)"
     id="polyline46"
     points="142.187,63.3465 142.187,83.3465"
     class="BarLine" />
  <path
     id="path48"
     d="m 403.59334,37.322889 v 1.5469 c 0,0.5521 0.026,0.9896 0.078,1.3125 0.427,-0.3646 0.734,-0.6354 0.922,-0.8125 0.208,-0.2083 0.416,-0.4974 0.625,-0.8672 0.208,-0.3698 0.312,-0.737 0.312,-1.1015 0,-0.3646 -0.078,-0.6771 -0.234,-0.9375 -0.156,-0.2605 -0.365,-0.3907 -0.625,-0.3907 -0.313,0 -0.573,0.1198 -0.781,0.3594 -0.198,0.2604 -0.297,0.5573 -0.297,0.8906 m -0.828,3.5782 -0.25,-11.8907 c 0.187,-0.1041 0.372,-0.1562 0.554,-0.1562 0.183,0 0.362,0.0521 0.539,0.1562 l -0.156,6.8907 c 0.531,-0.4584 1.146,-0.6875 1.844,-0.6875 0.5,0 0.919,0.2083 1.258,0.625 0.338,0.4166 0.508,0.8958 0.508,1.4375 0,0.3333 -0.11,0.6927 -0.329,1.0781 -0.208,0.3437 -0.427,0.6146 -0.656,0.8125 -0.135,0.1041 -0.469,0.3646 -1,0.7812 -0.156,0.1146 -0.341,0.25 -0.555,0.4063 -0.213,0.1562 -0.346,0.2552 -0.398,0.2969 -0.094,0.052 -0.182,0.1562 -0.266,0.3125 -0.083,0.1354 -0.187,0.2447 -0.312,0.3281 -0.083,0.0833 -0.19,0.125 -0.32,0.125 -0.131,0 -0.237,-0.0469 -0.321,-0.1406 -0.093,-0.0938 -0.14,-0.2188 -0.14,-0.375"
     class="Accidental" />
  <path
     id="path50"
     d="m 209.48534,89.822889 v 1.546902 c 0,0.5521 0.027,0.9896 0.079,1.3125 0.427,-0.3646 0.734,-0.6354 0.921,-0.8125 0.209,-0.2083 0.417,-0.4974 0.625,-0.8672 0.209,-0.3698 0.313,-0.737 0.313,-1.101502 0,-0.3646 -0.078,-0.6771 -0.234,-0.9375 -0.157,-0.2605 -0.365,-0.3907 -0.625,-0.3907 -0.313,0 -0.573,0.1198 -0.782,0.3594 -0.198,0.2604 -0.297,0.5573 -0.297,0.8906 m -0.828,3.578202 -0.25,-11.890702 c 0.188,-0.1041 0.373,-0.1562 0.555,-0.1562 0.182,0 0.362,0.0521 0.539,0.1562 l -0.156,6.8907 c 0.531,-0.4584 1.146,-0.6875 1.844,-0.6875 0.5,0 0.919,0.2083 1.257,0.625 0.339,0.4166 0.508,0.8958 0.508,1.4375 0,0.3333 -0.109,0.692702 -0.328,1.078102 -0.208,0.3437 -0.427,0.6146 -0.656,0.8125 -0.136,0.1041 -0.469,0.3646 -1,0.7812 -0.156,0.1146 -0.341,0.25 -0.555,0.4063 -0.213,0.1562 -0.346,0.2552 -0.398,0.2969 -0.094,0.052 -0.183,0.1562 -0.266,0.3125 -0.083,0.1354 -0.187,0.2447 -0.312,0.3281 -0.084,0.0833 -0.19,0.125 -0.321,0.125 -0.13,0 -0.237,-0.0469 -0.32,-0.1406 -0.094,-0.0938 -0.141,-0.2188 -0.141,-0.375"
     class="Accidental" />
  <path
     id="path52"
     d="m 109.37834,24.385389 c 0,0.25 -0.123,0.375 -0.368,0.375 -0.244,0 -0.367,-0.125 -0.367,-0.375 v -2.8906 l -1.656,0.625 v 3.1563 c 0,0.25 -0.125,0.375 -0.375,0.375 -0.25,0 -0.375,-0.125 -0.375,-0.375 v -2.9063 l -0.625,0.2344 c -0.01,0.0104 -0.063,0.0156 -0.156,0.0156 -0.104,0 -0.196,-0.0391 -0.274,-0.1172 -0.078,-0.0781 -0.117,-0.1693 -0.117,-0.2734 v -1.2031 c 0,-0.198 0.083,-0.323 0.25,-0.375 l 0.922,-0.3125 v -3.20317 l -0.625,0.21877 c -0.01,0.0104 -0.063,0.0156 -0.156,0.0156 -0.104,0 -0.196,-0.0391 -0.274,-0.11718 -0.078,-0.0781 -0.117,-0.16927 -0.117,-0.27344 v -1.21875 c 0,-0.17708 0.083,-0.29166 0.25,-0.34375 l 0.922,-0.35937 v -3.14063 c 0,-0.25 0.125,-0.375 0.375,-0.375 0.25,0 0.375,0.125 0.375,0.375 v 2.89063 l 1.656,-0.625 v -3.15625 c 0,-0.25 0.123,-0.375 0.367,-0.375 0.245,0 0.368,0.125 0.368,0.375 v 2.90625 l 0.656,-0.23438 c 0.01,-0.0104 0.052,-0.0156 0.125,-0.0156 0.094,0 0.193,0.0365 0.297,0.10937 0.083,0.0833 0.125,0.17709 0.125,0.28125 v 1.20313 c 0,0.1875 -0.094,0.3125 -0.282,0.375 l -0.921,0.3125 v 3.20314 l 0.656,-0.2188 c 0.01,-0.0104 0.052,-0.0156 0.125,-0.0156 0.094,0 0.193,0.0417 0.297,0.125 0.083,0.0729 0.125,0.1615 0.125,0.2656 v 1.2188 c 0,0.1666 -0.094,0.2812 -0.282,0.3437 l -0.921,0.3594 v 3.1406 m -0.735,-8.12497 -1.656,0.57813 v 3.20314 l 1.656,-0.5781 v -3.20317"
     class="Accidental" />
  <polyline
     style="stroke:#000000;stroke-width:0.80000001;stroke-linecap:square;stroke-linejoin:bevel"
     transform="translate(-12.485657,7.3045889)"
     id="polyline54"
     points="495.684,33.3465 505.267,33.3465"
     class="LedgerLine" />
  <polyline
     style="stroke:#000000;stroke-width:0.80000001;stroke-linecap:square;stroke-linejoin:bevel"
     transform="translate(-12.485657,7.3045889)"
     id="polyline56"
     points="495.684,38.3465 505.267,38.3465"
     class="LedgerLine" />
  <polyline
     style="stroke:#000000;stroke-width:0.80000001;stroke-linecap:square;stroke-linejoin:bevel"
     transform="translate(-12.485657,7.3045889)"
     id="polyline58"
     points="495.684,43.3465 505.267,43.3465"
     class="LedgerLine" />
  <polyline
     style="stroke:#000000;stroke-width:0.80000001;stroke-linecap:square;stroke-linejoin:bevel"
     transform="translate(-12.485657,7.3045889)"
     id="polyline60"
     points="495.684,48.3465 505.267,48.3465"
     class="LedgerLine" />
  <polyline
     style="stroke:#000000;stroke-width:0.80000001;stroke-linecap:square;stroke-linejoin:bevel"
     transform="translate(-12.485657,7.3045889)"
     id="polyline62"
     points="495.684,53.3465 505.267,53.3465"
     class="LedgerLine" />
  <polyline
     style="stroke:#000000;stroke-width:0.80000001;stroke-linecap:square;stroke-linejoin:bevel"
     transform="translate(-12.485657,7.3045889)"
     id="polyline64"
     points="495.684,58.3465 505.267,58.3465"
     class="LedgerLine" />
  <polyline
     style="stroke:#000000;stroke-width:0.80000001;stroke-linecap:square;stroke-linejoin:bevel"
     transform="translate(-12.485657,7.3045889)"
     id="polyline66"
     points="439.922,33.3465 452.825,33.3465"
     class="LedgerLine" />
  <polyline
     style="stroke:#000000;stroke-width:0.80000001;stroke-linecap:square;stroke-linejoin:bevel"
     transform="translate(-12.485657,7.3045889)"
     id="polyline68"
     points="439.922,38.3465 452.825,38.3465"
     class="LedgerLine" />
  <polyline
     style="stroke:#000000;stroke-width:0.80000001;stroke-linecap:square;stroke-linejoin:bevel"
     transform="translate(-12.485657,7.3045889)"
     id="polyline70"
     points="439.922,43.3465 452.825,43.3465"
     class="LedgerLine" />
  <polyline
     style="stroke:#000000;stroke-width:0.80000001;stroke-linecap:square;stroke-linejoin:bevel"
     transform="translate(-12.485657,7.3045889)"
     id="polyline72"
     points="439.922,48.3465 452.825,48.3465"
     class="LedgerLine" />
  <polyline
     style="stroke:#000000;stroke-width:0.80000001;stroke-linecap:square;stroke-linejoin:bevel"
     transform="translate(-12.485657,7.3045889)"
     id="polyline74"
     points="439.922,53.3465 452.825,53.3465"
     class="LedgerLine" />
  <polyline
     style="stroke:#000000;stroke-width:0.80000001;stroke-linecap:square;stroke-linejoin:bevel"
     transform="translate(-12.485657,7.3045889)"
     id="polyline76"
     points="439.922,58.3465 452.825,58.3465"
     class="LedgerLine" />
  <polyline
     style="stroke:#000000;stroke-width:0.80000001;stroke-linecap:square;stroke-linejoin:bevel"
     transform="translate(-12.485657,7.3045889)"
     id="polyline78"
     points="420.191,33.3465 429.774,33.3465"
     class="LedgerLine" />
  <polyline
     style="stroke:#000000;stroke-width:0.80000001;stroke-linecap:square;stroke-linejoin:bevel"
     transform="translate(-12.485657,7.3045889)"
     id="polyline80"
     points="420.191,38.3465 429.774,38.3465"
     class="LedgerLine" />
  <polyline
     style="stroke:#000000;stroke-width:0.80000001;stroke-linecap:square;stroke-linejoin:bevel"
     transform="translate(-12.485657,7.3045889)"
     id="polyline82"
     points="420.191,43.3465 429.774,43.3465"
     class="LedgerLine" />
  <polyline
     style="stroke:#000000;stroke-width:0.80000001;stroke-linecap:square;stroke-linejoin:bevel"
     transform="translate(-12.485657,7.3045889)"
     id="polyline84"
     points="420.191,48.3465 429.774,48.3465"
     class="LedgerLine" />
  <polyline
     style="stroke:#000000;stroke-width:0.80000001;stroke-linecap:square;stroke-linejoin:bevel"
     transform="translate(-12.485657,7.3045889)"
     id="polyline86"
     points="420.191,53.3465 429.774,53.3465"
     class="LedgerLine" />
  <polyline
     style="stroke:#000000;stroke-width:0.80000001;stroke-linecap:square;stroke-linejoin:bevel"
     transform="translate(-12.485657,7.3045889)"
     id="polyline88"
     points="420.191,58.3465 429.774,58.3465"
     class="LedgerLine" />
  <polyline
     style="stroke:#000000;stroke-width:0.80000001;stroke-linecap:square;stroke-linejoin:bevel"
     transform="translate(-12.485657,7.3045889)"
     id="polyline90"
     points="202.849,13.3465 212.432,13.3465"
     class="LedgerLine" />
  <polyline
     style="stroke:#000000;stroke-width:0.80000001;stroke-linecap:square;stroke-linejoin:bevel"
     transform="translate(-12.485657,7.3045889)"
     id="polyline92"
     points="202.849,18.3465 212.432,18.3465"
     class="LedgerLine" />
  <polyline
     style="stroke:#000000;stroke-width:0.80000001;stroke-linecap:square;stroke-linejoin:bevel"
     transform="translate(-12.485657,7.3045889)"
     id="polyline94"
     points="202.849,23.3465 212.432,23.3465"
     class="LedgerLine" />
  <polyline
     style="stroke:#000000;stroke-width:0.80000001;stroke-linecap:square;stroke-linejoin:bevel"
     transform="translate(-12.485657,7.3045889)"
     id="polyline96"
     points="202.849,28.3465 212.432,28.3465"
     class="LedgerLine" />
  <polyline
     style="stroke:#000000;stroke-width:0.80000001;stroke-linecap:square;stroke-linejoin:bevel"
     transform="translate(-12.485657,7.3045889)"
     id="polyline98"
     points="202.849,33.3465 212.432,33.3465"
     class="LedgerLine" />
  <polyline
     style="stroke:#000000;stroke-width:0.80000001;stroke-linecap:square;stroke-linejoin:bevel"
     transform="translate(-12.485657,7.3045889)"
     id="polyline100"
     points="202.849,38.3465 212.432,38.3465"
     class="LedgerLine" />
  <polyline
     style="stroke:#000000;stroke-width:0.80000001;stroke-linecap:square;stroke-linejoin:bevel"
     transform="translate(-12.485657,7.3045889)"
     id="polyline102"
     points="202.849,43.3465 212.432,43.3465"
     class="LedgerLine" />
  <polyline
     style="stroke:#000000;stroke-width:0.80000001;stroke-linecap:square;stroke-linejoin:bevel"
     transform="translate(-12.485657,7.3045889)"
     id="polyline104"
     points="202.849,48.3465 212.432,48.3465"
     class="LedgerLine" />
  <polyline
     style="stroke:#000000;stroke-width:0.80000001;stroke-linecap:square;stroke-linejoin:bevel"
     transform="translate(-12.485657,7.3045889)"
     id="polyline106"
     points="202.849,53.3465 212.432,53.3465"
     class="LedgerLine" />
  <polyline
     style="stroke:#000000;stroke-width:0.80000001;stroke-linecap:square;stroke-linejoin:bevel"
     transform="translate(-12.485657,7.3045889)"
     id="polyline108"
     points="202.849,58.3465 212.432,58.3465"
     class="LedgerLine" />
  <polyline
     style="stroke:#000000;stroke-width:0.80000001;stroke-linecap:square;stroke-linejoin:bevel"
     transform="translate(-12.485657,7.3045889)"
     id="polyline110"
     points="147.087,13.3465 159.99,13.3465"
     class="LedgerLine" />
  <polyline
     style="stroke:#000000;stroke-width:0.80000001;stroke-linecap:square;stroke-linejoin:bevel"
     transform="translate(-12.485657,7.3045889)"
     id="polyline112"
     points="147.087,18.3465 159.99,18.3465"
     class="LedgerLine" />
  <polyline
     style="stroke:#000000;stroke-width:0.80000001;stroke-linecap:square;stroke-linejoin:bevel"
     transform="translate(-12.485657,7.3045889)"
     id="polyline114"
     points="147.087,23.3465 159.99,23.3465"
     class="LedgerLine" />
  <polyline
     style="stroke:#000000;stroke-width:0.80000001;stroke-linecap:square;stroke-linejoin:bevel"
     transform="translate(-12.485657,7.3045889)"
     id="polyline116"
     points="147.087,28.3465 159.99,28.3465"
     class="LedgerLine" />
  <polyline
     style="stroke:#000000;stroke-width:0.80000001;stroke-linecap:square;stroke-linejoin:bevel"
     transform="translate(-12.485657,7.3045889)"
     id="polyline118"
     points="147.087,33.3465 159.99,33.3465"
     class="LedgerLine" />
  <polyline
     style="stroke:#000000;stroke-width:0.80000001;stroke-linecap:square;stroke-linejoin:bevel"
     transform="translate(-12.485657,7.3045889)"
     id="polyline120"
     points="147.087,38.3465 159.99,38.3465"
     class="LedgerLine" />
  <polyline
     style="stroke:#000000;stroke-width:0.80000001;stroke-linecap:square;stroke-linejoin:bevel"
     transform="translate(-12.485657,7.3045889)"
     id="polyline122"
     points="147.087,43.3465 159.99,43.3465"
     class="LedgerLine" />
  <polyline
     style="stroke:#000000;stroke-width:0.80000001;stroke-linecap:square;stroke-linejoin:bevel"
     transform="translate(-12.485657,7.3045889)"
     id="polyline124"
     points="147.087,48.3465 159.99,48.3465"
     class="LedgerLine" />
  <polyline
     style="stroke:#000000;stroke-width:0.80000001;stroke-linecap:square;stroke-linejoin:bevel"
     transform="translate(-12.485657,7.3045889)"
     id="polyline126"
     points="147.087,53.3465 159.99,53.3465"
     class="LedgerLine" />
  <polyline
     style="stroke:#000000;stroke-width:0.80000001;stroke-linecap:square;stroke-linejoin:bevel"
     transform="translate(-12.485657,7.3045889)"
     id="polyline128"
     points="147.087,58.3465 159.99,58.3465"
     class="LedgerLine" />
  <polyline
     style="stroke:#000000;stroke-width:0.80000001;stroke-linecap:square;stroke-linejoin:bevel"
     transform="translate(-12.485657,7.3045889)"
     id="polyline130"
     points="123.659,13.3465 133.242,13.3465"
     class="LedgerLine" />
  <polyline
     style="stroke:#000000;stroke-width:0.80000001;stroke-linecap:square;stroke-linejoin:bevel"
     transform="translate(-12.485657,7.3045889)"
     id="polyline132"
     points="123.659,18.3465 133.242,18.3465"
     class="LedgerLine" />
  <polyline
     style="stroke:#000000;stroke-width:0.80000001;stroke-linecap:square;stroke-linejoin:bevel"
     transform="translate(-12.485657,7.3045889)"
     id="polyline134"
     points="123.659,23.3465 133.242,23.3465"
     class="LedgerLine" />
  <polyline
     style="stroke:#000000;stroke-width:0.80000001;stroke-linecap:square;stroke-linejoin:bevel"
     transform="translate(-12.485657,7.3045889)"
     id="polyline136"
     points="123.659,28.3465 133.242,28.3465"
     class="LedgerLine" />
  <polyline
     style="stroke:#000000;stroke-width:0.80000001;stroke-linecap:square;stroke-linejoin:bevel"
     transform="translate(-12.485657,7.3045889)"
     id="polyline138"
     points="123.659,33.3465 133.242,33.3465"
     class="LedgerLine" />
  <polyline
     style="stroke:#000000;stroke-width:0.80000001;stroke-linecap:square;stroke-linejoin:bevel"
     transform="translate(-12.485657,7.3045889)"
     id="polyline140"
     points="123.659,38.3465 133.242,38.3465"
     class="LedgerLine" />
  <polyline
     style="stroke:#000000;stroke-width:0.80000001;stroke-linecap:square;stroke-linejoin:bevel"
     transform="translate(-12.485657,7.3045889)"
     id="polyline142"
     points="123.659,43.3465 133.242,43.3465"
     class="LedgerLine" />
  <polyline
     style="stroke:#000000;stroke-width:0.80000001;stroke-linecap:square;stroke-linejoin:bevel"
     transform="translate(-12.485657,7.3045889)"
     id="polyline144"
     points="123.659,48.3465 133.242,48.3465"
     class="LedgerLine" />
  <polyline
     style="stroke:#000000;stroke-width:0.80000001;stroke-linecap:square;stroke-linejoin:bevel"
     transform="translate(-12.485657,7.3045889)"
     id="polyline146"
     points="123.659,53.3465 133.242,53.3465"
     class="LedgerLine" />
  <polyline
     style="stroke:#000000;stroke-width:0.80000001;stroke-linecap:square;stroke-linejoin:bevel"
     transform="translate(-12.485657,7.3045889)"
     id="polyline148"
     points="123.659,58.3465 133.242,58.3465"
     class="LedgerLine" />
  <polyline
     style="stroke:#000000;stroke-width:0.80000001;stroke-linecap:square;stroke-linejoin:bevel"
     transform="translate(-12.485657,7.3045889)"
     id="polyline150"
     points="107.031,48.3465 116.614,48.3465"
     class="LedgerLine" />
  <polyline
     style="stroke:#000000;stroke-width:0.80000001;stroke-linecap:square;stroke-linejoin:bevel"
     transform="translate(-12.485657,7.3045889)"
     id="polyline152"
     points="107.031,53.3465 116.614,53.3465"
     class="LedgerLine" />
  <polyline
     style="stroke:#000000;stroke-width:0.80000001;stroke-linecap:square;stroke-linejoin:bevel"
     transform="translate(-12.485657,7.3045889)"
     id="polyline154"
     points="107.031,58.3465 116.614,58.3465"
     class="LedgerLine" />
  <polyline
     style="stroke:#000000;stroke-width:0.80000001;stroke-linecap:square;stroke-linejoin:bevel"
     transform="translate(-12.485657,7.3045889)"
     id="polyline156"
     points="64.434,48.3465 74.3777,48.3465"
     class="LedgerLine" />
  <polyline
     style="stroke:#000000;stroke-width:0.80000001;stroke-linecap:square;stroke-linejoin:bevel"
     transform="translate(-12.485657,7.3045889)"
     id="polyline158"
     points="64.434,53.3465 74.3777,53.3465"
     class="LedgerLine" />
  <polyline
     style="stroke:#000000;stroke-width:0.80000001;stroke-linecap:square;stroke-linejoin:bevel"
     transform="translate(-12.485657,7.3045889)"
     id="polyline160"
     points="64.434,58.3465 74.3777,58.3465"
     class="LedgerLine" />
  <polyline
     style="stroke:#000000;stroke-width:0.64999998;stroke-linecap:round;stroke-linejoin:bevel"
     transform="translate(-12.485657,7.3045889)"
     id="polyline162"
     points="497.509,31.7855 497.509,73.3465"
     class="Stem" />
  <polyline
     style="stroke:#000000;stroke-width:0.64999998;stroke-linecap:round;stroke-linejoin:bevel"
     transform="translate(-12.485657,7.3045889)"
     id="polyline164"
     points="422.016,31.7855 422.016,73.3465"
     class="Stem" />
  <polyline
     style="stroke:#000000;stroke-width:0.64999998;stroke-linecap:round;stroke-linejoin:bevel"
     transform="translate(-12.485657,7.3045889)"
     id="polyline166"
     points="396.79,64.2855 396.79,78.3465"
     class="Stem" />
  <polyline
     style="stroke:#000000;stroke-width:0.64999998;stroke-linecap:round;stroke-linejoin:bevel"
     transform="translate(-12.485657,7.3045889)"
     id="polyline168"
     points="355.866,64.1305 355.866,80.8465"
     class="Stem" />
  <polyline
     style="stroke:#000000;stroke-width:0.64999998;stroke-linecap:round;stroke-linejoin:bevel"
     transform="translate(-12.485657,7.3045889)"
     id="polyline170"
     points="311.992,64.1305 311.992,80.8465"
     class="Stem" />
  <polyline
     style="stroke:#000000;stroke-width:0.64999998;stroke-linecap:round;stroke-linejoin:bevel"
     transform="translate(-12.485657,7.3045889)"
     id="polyline172"
     points="289.329,64.2855 289.329,93.3465"
     class="Stem" />
  <polyline
     style="stroke:#000000;stroke-width:0.64999998;stroke-linecap:round;stroke-linejoin:bevel"
     transform="translate(-12.485657,7.3045889)"
     id="polyline174"
     points="277.621,84.2855 277.621,98.3465"
     class="Stem" />
  <polyline
     style="stroke:#000000;stroke-width:0.64999998;stroke-linecap:round;stroke-linejoin:bevel"
     transform="translate(-12.485657,7.3045889)"
     id="polyline176"
     points="233.203,82.5785 233.203,65.8465"
     class="Stem" />
  <polyline
     style="stroke:#000000;stroke-width:0.64999998;stroke-linecap:round;stroke-linejoin:bevel"
     transform="translate(-12.485657,7.3045889)"
     id="polyline178"
     points="204.674,11.7855 204.674,73.3465"
     class="Stem" />
  <polyline
     style="stroke:#000000;stroke-width:0.64999998;stroke-linecap:round;stroke-linejoin:bevel"
     transform="translate(-12.485657,7.3045889)"
     id="polyline180"
     points="125.484,11.7855 125.484,72.0965"
     class="Stem" />
  <polyline
     style="stroke:#000000;stroke-width:0.64999998;stroke-linecap:round;stroke-linejoin:bevel"
     transform="translate(-12.485657,7.3045889)"
     id="polyline182"
     points="108.856,46.7855 108.856,73.3465"
     class="Stem" />
  <polyline
     style="stroke:#000000;stroke-width:0.64999998;stroke-linecap:round;stroke-linejoin:bevel"
     transform="translate(-12.485657,7.3045889)"
     id="polyline184"
     points="66.259,46.6305 66.259,73.3465"
     class="Stem" />
  <path
     id="path186"
     d="m 489.08934,35.401089 c 0.625,0 1.156,0.1614 1.594,0.4843 0.396,0.3542 0.593,0.7969 0.593,1.3282 0,0.8958 -0.458,1.7343 -1.375,2.5156 -0.937,0.7812 -1.942,1.1719 -3.015,1.1719 -0.625,0 -1.151,-0.1615 -1.578,-0.4844 -0.407,-0.3542 -0.61,-0.7969 -0.61,-1.3281 0,-0.8959 0.469,-1.7344 1.407,-2.5157 0.916,-0.7812 1.911,-1.1718 2.984,-1.1718"
     class="Note" />
  <path
     id="path188"
     d="m 433.23234,35.901089 c -0.468,0 -0.807,0.1614 -1.015,0.4843 -0.229,0.3125 -0.344,0.7396 -0.344,1.2813 0,0.6146 0.161,1.1406 0.484,1.5781 0.323,0.4271 0.683,0.7292 1.079,0.9063 0.343,0.1666 0.713,0.25 1.109,0.25 0.458,0 0.802,-0.1615 1.031,-0.4844 0.219,-0.3334 0.328,-0.7604 0.328,-1.2813 0,-0.6146 -0.161,-1.1406 -0.484,-1.5781 -0.323,-0.4167 -0.672,-0.7187 -1.047,-0.9062 -0.385,-0.1667 -0.766,-0.25 -1.141,-0.25 m 0.672,-0.5 c 1.407,0 2.578,0.2708 3.516,0.8125 0.948,0.552 1.422,1.1979 1.422,1.9375 0,0.7916 -0.49,1.4427 -1.469,1.9531 -0.979,0.5312 -2.135,0.7969 -3.469,0.7969 -1.385,0 -2.557,-0.2709 -3.515,-0.8125 -0.969,-0.5521 -1.453,-1.198 -1.453,-1.9375 0,-0.7917 0.494,-1.4428 1.484,-1.9532 0.979,-0.5312 2.141,-0.7968 3.484,-0.7968"
     class="Note" />
  <path
     id="path190"
     d="m 413.59634,35.401089 c 0.625,0 1.156,0.1614 1.594,0.4843 0.396,0.3542 0.593,0.7969 0.593,1.3282 0,0.8958 -0.458,1.7343 -1.375,2.5156 -0.937,0.7812 -1.942,1.1719 -3.015,1.1719 -0.625,0 -1.151,-0.1615 -1.578,-0.4844 -0.407,-0.3542 -0.61,-0.7969 -0.61,-1.3281 0,-0.8959 0.469,-1.7344 1.407,-2.5157 0.916,-0.7812 1.911,-1.1718 2.984,-1.1718"
     class="Note" />
  <path
     id="path192"
     d="m 388.36934,67.901089 c 0.625,0 1.157,0.1614 1.594,0.4843 0.396,0.3542 0.594,0.7969 0.594,1.3282 0,0.8958 -0.458,1.7343 -1.375,2.5156 -0.938,0.7812 -1.943,1.1719 -3.016,1.1719 -0.625,0 -1.151,-0.1615 -1.578,-0.4844 -0.406,-0.3542 -0.609,-0.7969 -0.609,-1.3281 0,-0.8959 0.468,-1.7344 1.406,-2.5157 0.917,-0.7812 1.911,-1.1718 2.984,-1.1718"
     class="Note" />
  <path
     id="path194"
     d="m 349.36834,69.338589 c 0,-0.2188 -0.083,-0.4063 -0.25,-0.5625 -0.177,-0.1667 -0.375,-0.25 -0.594,-0.25 -0.385,0 -1.172,0.3906 -2.359,1.1718 -1.229,0.7917 -1.979,1.3594 -2.25,1.7032 -0.146,0.177 -0.219,0.3645 -0.219,0.5625 0,0.2187 0.089,0.4062 0.266,0.5625 0.156,0.1666 0.349,0.25 0.578,0.25 0.375,0 1.172,-0.3907 2.39,-1.1719 1.198,-0.7813 1.938,-1.349 2.219,-1.7031 0.146,-0.1667 0.219,-0.3542 0.219,-0.5625 m -1.031,-1.4375 c 1.114,0 1.672,0.4791 1.672,1.4375 0,0.4687 -0.136,1.0156 -0.407,1.6406 -0.271,0.6146 -0.635,1.0833 -1.093,1.4062 -1,0.6771 -2.256,1.0157 -3.766,1.0157 -1.125,0 -1.688,-0.4792 -1.688,-1.4375 0,-0.4271 0.136,-0.9688 0.407,-1.625 0.26,-0.625 0.625,-1.099 1.093,-1.4219 1.011,-0.6771 2.271,-1.0156 3.782,-1.0156"
     class="Note" />
  <path
     id="path196"
     d="m 305.49434,69.338589 c 0,-0.2188 -0.084,-0.4063 -0.25,-0.5625 -0.177,-0.1667 -0.375,-0.25 -0.594,-0.25 -0.385,0 -1.172,0.3906 -2.359,1.1718 -1.23,0.7917 -1.98,1.3594 -2.25,1.7032 -0.146,0.177 -0.219,0.3645 -0.219,0.5625 0,0.2187 0.088,0.4062 0.266,0.5625 0.156,0.1666 0.348,0.25 0.578,0.25 0.375,0 1.172,-0.3907 2.39,-1.1719 1.198,-0.7813 1.938,-1.349 2.219,-1.7031 0.146,-0.1667 0.219,-0.3542 0.219,-0.5625 m -1.031,-1.4375 c 1.114,0 1.671,0.4791 1.671,1.4375 0,0.4687 -0.135,1.0156 -0.406,1.6406 -0.271,0.6146 -0.635,1.0833 -1.094,1.4062 -1,0.6771 -2.255,1.0157 -3.765,1.0157 -1.125,0 -1.688,-0.4792 -1.688,-1.4375 0,-0.4271 0.136,-0.9688 0.407,-1.625 0.26,-0.625 0.625,-1.099 1.093,-1.4219 1.011,-0.6771 2.271,-1.0156 3.782,-1.0156"
     class="Note" />
  <path
     id="path198"
     d="m 280.90934,67.901089 c 0.625,0 1.156,0.1614 1.594,0.4843 0.396,0.3542 0.594,0.7969 0.594,1.3282 0,0.8958 -0.459,1.7343 -1.375,2.5156 -0.938,0.7812 -1.943,1.1719 -3.016,1.1719 -0.625,0 -1.151,-0.1615 -1.578,-0.4844 -0.406,-0.3542 -0.61,-0.7969 -0.61,-1.3281 0,-0.8959 0.469,-1.7344 1.407,-2.5157 0.916,-0.7812 1.911,-1.1718 2.984,-1.1718"
     class="Note" />
  <path
     id="path200"
     d="m 269.20034,87.901089 c 0.625,0 1.157,0.1614 1.594,0.4843 0.396,0.3542 0.594,0.7969 0.594,1.3282 0,0.895802 -0.458,1.734302 -1.375,2.515602 -0.938,0.7812 -1.943,1.1719 -3.016,1.1719 -0.625,0 -1.151,-0.1615 -1.578,-0.4844 -0.406,-0.3542 -0.609,-0.7969 -0.609,-1.3281 0,-0.8959 0.469,-1.734402 1.406,-2.515702 0.917,-0.7812 1.911,-1.1718 2.984,-1.1718"
     class="Note" />
  <path
     id="path202"
     d="m 220.41034,89.338589 c 0,-0.2188 -0.083,-0.4063 -0.25,-0.5625 -0.177,-0.1667 -0.375,-0.25 -0.593,-0.25 -0.386,0 -1.172,0.3906 -2.36,1.1718 -1.229,0.791702 -1.979,1.359402 -2.25,1.703202 -0.145,0.177 -0.218,0.3645 -0.218,0.5625 0,0.2187 0.088,0.4062 0.265,0.5625 0.156,0.1666 0.349,0.25 0.578,0.25 0.375,0 1.172,-0.3907 2.391,-1.1719 1.198,-0.7813 1.937,-1.349 2.219,-1.703102 0.146,-0.1667 0.218,-0.3542 0.218,-0.5625 m -1.031,-1.4375 c 1.115,0 1.672,0.4791 1.672,1.4375 0,0.4687 -0.135,1.015602 -0.406,1.640602 -0.271,0.6146 -0.636,1.0833 -1.094,1.4062 -1,0.6771 -2.255,1.0157 -3.766,1.0157 -1.125,0 -1.687,-0.4792 -1.687,-1.4375 0,-0.4271 0.135,-0.9688 0.406,-1.625 0.261,-0.625002 0.625,-1.099002 1.094,-1.421902 1.01,-0.6771 2.271,-1.0156 3.781,-1.0156"
     class="Note" />
  <path
     id="path204"
     d="m 196.25434,15.401049 c 0.625,0 1.156,0.16146 1.594,0.48437 0.396,0.35417 0.594,0.79688 0.594,1.32813 0,0.89584 -0.459,1.73434 -1.375,2.51564 -0.938,0.7812 -1.943,1.1719 -3.016,1.1719 -0.625,0 -1.151,-0.1615 -1.578,-0.4844 -0.406,-0.3542 -0.61,-0.7969 -0.61,-1.3281 0,-0.8959 0.469,-1.7344 1.407,-2.51567 0.916,-0.78125 1.911,-1.17187 2.984,-1.17187"
     class="Note" />
  <path
     id="path206"
     d="m 140.39734,15.901049 c -0.468,0 -0.807,0.16146 -1.015,0.48437 -0.229,0.3125 -0.344,0.73959 -0.344,1.28127 0,0.6146 0.162,1.1406 0.484,1.5781 0.323,0.4271 0.683,0.7292 1.079,0.9063 0.343,0.1666 0.713,0.25 1.109,0.25 0.458,0 0.802,-0.1615 1.031,-0.4844 0.219,-0.3334 0.328,-0.7604 0.328,-1.2813 0,-0.6146 -0.161,-1.1406 -0.484,-1.57809 -0.323,-0.41667 -0.672,-0.71875 -1.047,-0.90625 -0.385,-0.16667 -0.766,-0.25 -1.141,-0.25 m 0.672,-0.5 c 1.407,0 2.578,0.27083 3.516,0.8125 0.948,0.55208 1.422,1.19794 1.422,1.93754 0,0.7916 -0.49,1.4427 -1.469,1.9531 -0.979,0.5312 -2.135,0.7969 -3.469,0.7969 -1.385,0 -2.557,-0.2709 -3.515,-0.8125 -0.969,-0.5521 -1.453,-1.198 -1.453,-1.9375 0,-0.7917 0.494,-1.44275 1.484,-1.95317 0.979,-0.53125 2.141,-0.79687 3.484,-0.79687"
     class="Note" />
  <path
     id="path208"
     d="m 117.06434,15.401049 c 0.625,0 1.156,0.16146 1.593,0.48437 0.396,0.35417 0.594,0.79688 0.594,1.32813 0,0.89584 -0.458,1.73434 -1.375,2.51564 -0.937,0.7812 -1.943,1.1719 -3.016,1.1719 -0.625,0 -1.151,-0.1615 -1.578,-0.4844 -0.406,-0.3542 -0.609,-0.7969 -0.609,-1.3281 0,-0.8959 0.469,-1.7344 1.406,-2.51567 0.917,-0.78125 1.912,-1.17187 2.985,-1.17187"
     class="Note" />
  <path
     id="path210"
     d="m 100.43634,50.401089 c 0.625,0 1.156,0.1614 1.594,0.4843 0.395,0.3542 0.593,0.7969 0.593,1.3282 0,0.8958 -0.458,1.7343 -1.375,2.5156 -0.937,0.7812 -1.942001,1.1719 -3.015001,1.1719 -0.625,0 -1.151,-0.1615 -1.578,-0.4844 -0.407,-0.3542 -0.61,-0.7969 -0.61,-1.3281 0,-0.8959 0.469,-1.7344 1.406,-2.5157 0.917,-0.7812 1.912,-1.1718 2.985001,-1.1718"
     class="Note" />
  <path
     id="path212"
     d="m 59.760843,51.838589 c 0,-0.2188 -0.0834,-0.4063 -0.25,-0.5625 -0.1771,-0.1667 -0.375,-0.25 -0.5938,-0.25 -0.3854,0 -1.1719,0.3906 -2.3594,1.1718 -1.2291,0.7917 -1.9791,1.3594 -2.25,1.7032 -0.1458,0.177 -0.2187,0.3645 -0.2187,0.5625 0,0.2187 0.0885,0.4062 0.2656,0.5625 0.1563,0.1666 0.349,0.25 0.5781,0.25 0.375,0 1.1719,-0.3907 2.3907,-1.1719 1.1979,-0.7813 1.9375,-1.349 2.2187,-1.7031 0.1458,-0.1667 0.2188,-0.3542 0.2188,-0.5625 m -1.0313,-1.4375 c 1.1146,0 1.6719,0.4791 1.6719,1.4375 0,0.4687 -0.1354,1.0156 -0.4063,1.6406 -0.2708,0.6146 -0.6354,1.0833 -1.0937,1.4062 -1,0.6771 -2.2552,1.0157 -3.7656,1.0157 -1.125,0 -1.6875,-0.4792 -1.6875,-1.4375 0,-0.4271 0.1354,-0.9688 0.4062,-1.625 0.2604,-0.625 0.625,-1.099 1.0938,-1.4219 1.0104,-0.6771 2.2708,-1.0156 3.7812,-1.0156"
     class="Note" />
  <path
     id="path214"
     d="m 26.404543,80.526089 c 0,0 0.0417,0 0.125,0 0.0521,-0.0105 0.0938,-0.0157 0.125,-0.0157 1.4583,0 2.6563,0.5157 3.5938,1.5469 0.9375,1.0104 1.4062,2.1927 1.4062,3.5469 0,1.6875 -0.6927,3.0573 -2.0781,4.1094 -0.3646,0.2916 -0.8438,0.526002 -1.4375,0.703102 0.0729,0.8437 0.1094,1.526 0.1094,2.0469 0,0.1041 -0.0157,0.4843 -0.0469,1.1406 -0.0521,1.2083 -0.4688,2.2552 -1.25,3.1406 -0.75,0.875 -1.6875,1.3125 -2.8125,1.3125 -1.0521,0 -1.9479,-0.3698 -2.6875,-1.1094 -0.75,-0.7604 -1.125,-1.6718 -1.125,-2.7343 0,-0.5625 0.2187,-1.0417 0.6562,-1.4375 0.4375,-0.3855 0.9479,-0.5782 1.5313,-0.5782 0.5208,0 0.9583,0.2032 1.3125,0.6094 0.3646,0.375 0.5469,0.8438 0.5469,1.4063 0,0.5 -0.1823,0.9322 -0.5469,1.2968 -0.3646,0.3646 -0.8021,0.5469 -1.3125,0.5469 -0.2084,0 -0.4063,-0.0365 -0.5938,-0.1094 0.5729,0.8438 1.3334,1.2657 2.2813,1.2657 0.8958,0 1.6302,-0.3646 2.2031,-1.0938 0.6042,-0.75 0.9323,-1.6302 0.9844,-2.6406 0.0208,-0.625 0.0312,-0.9792 0.0312,-1.0625 0,-0.7292 -0.026,-1.3281 -0.0781,-1.7969 -0.6458,0.1042 -1.224,0.1563 -1.7344,0.1563 -1.8125,0 -3.3541,-0.718802 -4.625,-2.156302 -1.25,-1.4479 -1.875,-3.1667 -1.875,-5.1562 0,-0.4167 0.0365,-0.8386 0.1094,-1.2657 0.0833,-0.3541 0.1823,-0.7396 0.2969,-1.1562 0.0625,-0.2396 0.2396,-0.6198 0.5312,-1.1406 0.1042,-0.1563 0.2214,-0.3516 0.3516,-0.586 0.1302,-0.2344 0.2213,-0.388 0.2734,-0.4609 0.125,-0.2604 0.375,-0.6146 0.75,-1.0625 0.1042,-0.1146 0.2136,-0.2422 0.3282,-0.3828 0.1145,-0.1407 0.2109,-0.2578 0.289,-0.3516 0.0781,-0.0937 0.1354,-0.1667 0.1719,-0.2187 0.0365,-0.0521 0.3307,-0.3959 0.8828,-1.0313 0.125,-0.1354 0.25,-0.276 0.375,-0.4219 0.125,-0.1458 0.2266,-0.263 0.3047,-0.3515 0.0781,-0.0886 0.138,-0.1485 0.1797,-0.1797 -0.4688,-1.5521 -0.7656,-2.7917 -0.8906,-3.7188 -0.0834,-0.7396 -0.125,-1.7552 -0.125,-3.0468 0,-1.1355 0.2604,-2.198 0.7812,-3.1875 0.5,-1.0209 1.2083,-1.8594 2.125,-2.5157 0.0625,-0.0416 0.125,-0.0625 0.1875,-0.0625 0.0938,0 0.1615,0.0209 0.2031,0.0625 0.6979,0.8438 1.3021,1.9427 1.8125,3.2969 0.5209,1.3542 0.7813,2.5885 0.7813,3.7031 0,1.25 -0.2969,2.4219 -0.8906,3.5157 -0.6771,1.1562 -1.5521,2.3541 -2.625,3.5937 0.2708,0.8542 0.6354,2.1979 1.0937,4.0313 m 1.6563,9.0937 c 0.677,-0.25 1.2083,-0.6719 1.5937,-1.2656 0.4167,-0.5729 0.625,-1.2188 0.625,-1.9375 0,-0.9271 -0.3125,-1.75 -0.9375,-2.4688 -0.6458,-0.7396 -1.4635,-1.1562 -2.4531,-1.25 0.5625,2.75 0.9531,5.0573 1.1719,6.9219 m -7.5469,-4.5156 c 0,1.2916 0.5208,2.4271 1.5625,3.4062 1.0625,0.9479 2.2604,1.4219 3.5937,1.4219 0.5417,0 1.0729,-0.0417 1.5938,-0.125 -0.2084,-1.9792 -0.6198,-4.349 -1.2344,-7.1094 -0.7396,0.0834 -1.3281,0.3438 -1.7656,0.7813 -0.4375,0.4583 -0.6563,0.9739 -0.6563,1.5469 0,0.9895 0.5313,1.7916 1.5938,2.4062 0.0833,0.0938 0.125,0.1927 0.125,0.2969 0,0.1041 -0.0417,0.1979 -0.125,0.2812 -0.0834,0.0938 -0.1823,0.1407 -0.2969,0.1407 -0.0104,0 -0.0677,-0.0105 -0.1719,-0.0313 -0.75,-0.4062 -1.3229,-0.9271 -1.7187,-1.5625 -0.3854,-0.6875 -0.5781,-1.375 -0.5781,-2.0625 0,-0.8958 0.2812,-1.7083 0.8437,-2.4375 0.5833,-0.7292 1.3438,-1.1979 2.2813,-1.4062 -0.3646,-1.4584 -0.6615,-2.599 -0.8907,-3.4219 -0.2083,0.2396 -0.4583,0.5234 -0.75,0.8515 -0.2916,0.3282 -0.4635,0.5287 -0.5156,0.6016 -0.4687,0.6042 -0.8281,1.0781 -1.0781,1.4219 -0.4479,0.6146 -0.7761,1.1406 -0.9844,1.5781 -0.2187,0.5 -0.4115,1.0417 -0.5781,1.625 -0.1667,0.5625 -0.25,1.1615 -0.25,1.7969 m 6.5156,-19.8594 c -0.9792,0.4792 -1.7448,1.1667 -2.2969,2.0625 -0.5729,0.9271 -0.8593,1.9219 -0.8593,2.9844 0,0.9375 0.2343,2.2031 0.7031,3.7969 0.9375,-1.1355 1.6406,-2.1823 2.1094,-3.1407 0.4895,-1.0208 0.7343,-2.0833 0.7343,-3.1875 0,-0.8333 -0.1302,-1.6718 -0.3906,-2.5156"
     class="Clef" />
  <path
     id="path216"
     d="m 41.198343,70.901089 c 0.3854,0 0.7161,-0.0443 0.9921,-0.1329 0.2761,-0.0885 0.4506,-0.1328 0.5235,-0.1328 0.0937,0 0.1666,0.0261 0.2187,0.0782 0.0417,0.0312 0.0677,0.0729 0.0782,0.125 0,0.0312 -0.0157,0.0729 -0.0469,0.125 l -5.6719,6.6093 h 3.3281 v -2.625 c 0,-0.1666 0.0469,-0.3125 0.1407,-0.4375 0.1562,-0.125 0.2864,-0.2031 0.3906,-0.2343 0.1666,-0.073 0.375,-0.2553 0.625,-0.5469 0.2083,-0.2292 0.4583,-0.6354 0.75,-1.2188 0.0312,-0.0833 0.0885,-0.125 0.1719,-0.125 0.1562,0 0.2447,0.0938 0.2656,0.2813 v 4.9062 h 1.4375 c 0.1771,0 0.2812,0.0938 0.3125,0.2813 0,0.1979 -0.1042,0.2969 -0.3125,0.2969 h -1.4375 v 0.1562 c 0,0.5208 0.1302,0.9635 0.3906,1.3281 0.3021,0.3646 0.6563,0.5469 1.0625,0.5469 0.1563,0 0.2344,0.0781 0.2344,0.2344 0,0.1562 -0.0781,0.2344 -0.2344,0.2344 -0.2708,0 -0.7135,-0.0365 -1.3281,-0.1094 -0.5625,-0.0938 -1,-0.1406 -1.3125,-0.1406 -0.3229,0 -0.7604,0.0468 -1.3125,0.1406 -0.5834,0.0729 -1.0156,0.1094 -1.2969,0.1094 -0.1562,0 -0.2344,-0.0782 -0.2344,-0.2344 0,-0.1563 0.0782,-0.2344 0.2344,-0.2344 0.3958,0 0.7448,-0.1823 1.0469,-0.5469 0.2708,-0.3646 0.4062,-0.8073 0.4062,-1.3281 v -0.1562 h -3.3281 c -0.2292,0 -0.3854,-0.0521 -0.4687,-0.1563 -0.1146,-0.0729 -0.1719,-0.1771 -0.1719,-0.3125 0,-0.0417 0.0989,-0.1771 0.2969,-0.4062 0.2291,-0.2605 0.4635,-0.5782 0.7031,-0.9532 0.2916,-0.4479 0.5677,-0.9062 0.8281,-1.375 0.2813,-0.5312 0.5104,-1.1458 0.6875,-1.8437 0.1875,-0.6979 0.2813,-1.4115 0.2813,-2.1406 0,-0.2084 0.0937,-0.3125 0.2812,-0.3125 0.0417,0 0.125,0.0208 0.25,0.0625 0.0417,0.0104 0.125,0.0286 0.25,0.0546 0.125,0.0261 0.224,0.0495 0.2969,0.0704 0.2396,0.0416 0.4635,0.0625 0.6719,0.0625"
     class="TimeSig" />
  <path
     id="path218"
     d="m 41.198343,80.901089 c 0.3854,0 0.7161,-0.0443 0.9921,-0.1329 0.2761,-0.0885 0.4506,-0.1328 0.5235,-0.1328 0.0937,0 0.1666,0.0261 0.2187,0.0782 0.0417,0.0312 0.0677,0.0729 0.0782,0.125 0,0.0312 -0.0157,0.0729 -0.0469,0.125 l -5.6719,6.6093 h 3.3281 v -2.625 c 0,-0.1666 0.0469,-0.3125 0.1407,-0.4375 0.1562,-0.125 0.2864,-0.2031 0.3906,-0.2343 0.1666,-0.073 0.375,-0.2553 0.625,-0.5469 0.2083,-0.2292 0.4583,-0.6354 0.75,-1.2188 0.0312,-0.0833 0.0885,-0.125 0.1719,-0.125 0.1562,0 0.2447,0.0938 0.2656,0.2813 v 4.9062 h 1.4375 c 0.1771,0 0.2812,0.0938 0.3125,0.2813 0,0.1979 -0.1042,0.2969 -0.3125,0.2969 h -1.4375 v 0.1562 c 0,0.5208 0.1302,0.9635 0.3906,1.3281 0.3021,0.3646 0.6563,0.5469 1.0625,0.5469 0.1563,0 0.2344,0.0781 0.2344,0.234402 0,0.1562 -0.0781,0.2344 -0.2344,0.2344 -0.2708,0 -0.7135,-0.0365 -1.3281,-0.1094 -0.5625,-0.0938 -1,-0.1406 -1.3125,-0.1406 -0.3229,0 -0.7604,0.0468 -1.3125,0.1406 -0.5834,0.0729 -1.0156,0.1094 -1.2969,0.1094 -0.1562,0 -0.2344,-0.0782 -0.2344,-0.2344 0,-0.1563 0.0782,-0.234402 0.2344,-0.234402 0.3958,0 0.7448,-0.1823 1.0469,-0.5469 0.2708,-0.3646 0.4062,-0.8073 0.4062,-1.3281 v -0.1562 h -3.3281 c -0.2292,0 -0.3854,-0.0521 -0.4687,-0.1563 -0.1146,-0.0729 -0.1719,-0.1771 -0.1719,-0.3125 0,-0.0417 0.0989,-0.1771 0.2969,-0.4062 0.2291,-0.2605 0.4635,-0.5782 0.7031,-0.9532 0.2916,-0.4479 0.5677,-0.9062 0.8281,-1.375 0.2813,-0.5312 0.5104,-1.1458 0.6875,-1.8437 0.1875,-0.6979 0.2813,-1.4115 0.2813,-2.1406 0,-0.2084 0.0937,-0.3125 0.2812,-0.3125 0.0417,0 0.125,0.0208 0.25,0.0625 0.0417,0.0104 0.125,0.0286 0.25,0.0546 0.125,0.0261 0.224,0.0495 0.2969,0.0704 0.2396,0.0416 0.4635,0.0625 0.6719,0.0625"
     class="TimeSig" />
  <path
     id="path220"
     d="m 534.80434,80.651089 h -7.109 c -0.136,0 -0.203,-0.0678 -0.203,-0.2032 v -2.7343 c 0,-0.125 0.067,-0.1875 0.203,-0.1875 h 7.109 c 0.125,0 0.188,0.0625 0.188,0.1875 v 2.7343 c 0,0.1354 -0.063,0.2032 -0.188,0.2032"
     class="Rest" />
  <path
     id="path222"
     d="m 508.34734,79.088589 c 0,-0.2396 0.136,-0.5 0.407,-0.7813 0.187,-0.2083 0.474,-0.4583 0.859,-0.75 0.281,-0.1875 0.557,-0.4792 0.828,-0.875 0.261,-0.375 0.391,-0.7865 0.391,-1.2344 0,-0.5208 -0.167,-0.9791 -0.5,-1.375 l -0.703,-0.8437 c -0.052,-0.0521 -0.078,-0.1172 -0.078,-0.1953 0,-0.0782 0.036,-0.1485 0.109,-0.211 0.094,-0.0729 0.172,-0.1093 0.234,-0.1093 0.094,0 0.167,0.0416 0.219,0.125 l 3.031,3.5937 c 0.125,0.1667 0.188,0.3333 0.188,0.5 0,0.2396 -0.13,0.5 -0.391,0.7813 -0.167,0.1875 -0.443,0.4375 -0.828,0.75 -0.302,0.177 -0.589,0.4687 -0.859,0.875 -0.261,0.375 -0.391,0.7864 -0.391,1.2343 0,0.5521 0.156,1.0157 0.469,1.3907 l 1.672,1.9687 c 0.041,0.0417 0.073,0.1094 0.093,0.2031 0,0.0834 -0.031,0.1615 -0.093,0.2344 -0.094,0.0625 -0.172,0.0938 -0.235,0.0938 -0.021,0 -0.125,-0.073 -0.312,-0.2188 -0.198,-0.1562 -0.459,-0.3073 -0.781,-0.4531 -0.365,-0.1354 -0.724,-0.2031 -1.079,-0.2031 -0.323,0 -0.588,0.0885 -0.796,0.2656 -0.178,0.1875 -0.266,0.5416 -0.266,1.0625 0,0.7916 0.187,1.4166 0.562,1.875 0.042,0.0521 0.047,0.1146 0.016,0.1875 -0.021,0.0521 -0.068,0.0781 -0.141,0.0781 -0.083,0 -0.281,-0.2344 -0.593,-0.7031 -0.334,-0.4896 -0.641,-1.0573 -0.922,-1.7031 -0.302,-0.6771 -0.453,-1.2344 -0.453,-1.6719 0,-0.5625 0.265,-0.8438 0.797,-0.8438 0.614,0 1.411,0.2084 2.39,0.625 l -2.64,-3.1718 c -0.136,-0.1667 -0.204,-0.3334 -0.204,-0.5"
     class="Rest" />
  <path
     id="path224"
     d="m 497.99234,76.541689 c 0.375,0 0.661,0.1041 0.859,0.3125 0.198,0.2396 0.302,0.4635 0.312,0.6719 0.032,0.1979 0.099,0.4166 0.204,0.6562 0.114,0.2083 0.26,0.3125 0.437,0.3125 0.146,0 0.365,-0.1615 0.656,-0.4844 0.261,-0.2812 0.448,-0.5364 0.563,-0.7656 0.062,-0.125 0.151,-0.1875 0.265,-0.1875 h 0.032 c 0.125,0.0104 0.213,0.0729 0.265,0.1875 l -2.453,8.4063 c -0.135,0.1354 -0.32,0.2031 -0.554,0.2031 -0.235,0 -0.415,-0.0677 -0.54,-0.2031 l 2.344,-6.5313 c -0.833,0.3021 -1.536,0.4531 -2.109,0.4531 -0.469,0 -0.875,-0.151 -1.219,-0.4531 -0.354,-0.2812 -0.531,-0.6562 -0.531,-1.125 0,-0.4062 0.146,-0.7448 0.437,-1.0156 0.282,-0.2917 0.625,-0.4375 1.032,-0.4375"
     class="Rest" />
  <path
     style="fill-rule:evenodd"
     id="path226"
     d="m 383.97934,84.401089 25.876,-5.1289 v 2.5 l -25.876,5.1289 v -2.5"
     class="Beam" />
  <path
     style="fill-rule:evenodd"
     id="path228"
     d="m 409.85534,75.522189 -6.6,1.3082 v 2.5 l 6.6,-1.3082 v -2.5"
     class="Beam" />
  <path
     style="fill-rule:evenodd"
     id="path230"
     d="m 264.81034,104.40109 12.358,-5.277595 v 2.499995 l -12.358,5.2776 v -2.5"
     class="Beam" />
  <path
     style="fill-rule:evenodd"
     id="path232"
     d="m 264.81034,100.65109 6.6,-2.818499 v 2.499999 l -6.6,2.8185 v -2.5"
     class="Beam" />
  <path
     style="fill-rule:evenodd"
     id="path234"
     d="m 96.045339,79.401089 17.278001,-1.2989 v 2.5 l -17.278001,1.2989 v -2.5"
     class="Beam" />
  <path
     id="path236"
     d="m 489.24534,66.182289 c 0.302,0 0.625,0.4844 0.969,1.4531 0.323,0.9688 0.484,1.8907 0.484,2.7657 0,0.7395 -0.182,1.4739 -0.547,2.2031 -0.375,0.7812 -0.822,1.4583 -1.343,2.0312 l -1.61,1.7969 c -0.489,0.5729 -0.932,1.2344 -1.328,1.9844 -0.364,0.7291 -0.547,1.4739 -0.547,2.2344 h -0.625 v -5 h 0.625 c 0.354,-0.2188 0.875,-0.573 1.563,-1.0625 0.312,-0.2292 0.781,-0.6198 1.406,-1.1719 0.51,-0.4688 0.896,-0.9479 1.156,-1.4375 0.271,-0.5209 0.407,-1.0469 0.407,-1.5781 0,-1.2396 -0.36,-2.474 -1.079,-3.7032 0,0 0,-0.026 0,-0.0781 0,-0.1146 0.042,-0.2083 0.125,-0.2812 0.105,-0.1042 0.219,-0.1563 0.344,-0.1563"
     class="Hook" />
  <path
     id="path238"
     d="m 392.64734,68.955689 c -0.223,-0.2239 -0.335,-0.4921 -0.335,-0.8046 0,-0.3125 0.112,-0.5808 0.335,-0.8047 0.224,-0.224 0.493,-0.336 0.805,-0.336 0.313,0 0.578,0.112 0.797,0.336 0.219,0.2239 0.328,0.4922 0.328,0.8047 0,0.3125 -0.109,0.5807 -0.328,0.8046 -0.219,0.224 -0.484,0.336 -0.797,0.336 -0.312,0 -0.581,-0.112 -0.805,-0.336"
     class="NoteDot" />
  <path
     id="path240"
     d="m 352.08534,68.955689 c -0.224,-0.2239 -0.336,-0.4921 -0.336,-0.8046 0,-0.3125 0.112,-0.5808 0.336,-0.8047 0.224,-0.224 0.492,-0.336 0.805,-0.336 0.312,0 0.578,0.112 0.797,0.336 0.218,0.2239 0.328,0.4922 0.328,0.8047 0,0.3125 -0.11,0.5807 -0.328,0.8046 -0.219,0.224 -0.485,0.336 -0.797,0.336 -0.313,0 -0.581,-0.112 -0.805,-0.336"
     class="NoteDot" />
  <path
     id="path242"
     d="m 308.21134,68.955689 c -0.224,-0.2239 -0.336,-0.4921 -0.336,-0.8046 0,-0.3125 0.112,-0.5808 0.336,-0.8047 0.224,-0.224 0.492,-0.336 0.805,-0.336 0.312,0 0.578,0.112 0.797,0.336 0.218,0.2239 0.328,0.4922 0.328,0.8047 0,0.3125 -0.11,0.5807 -0.328,0.8046 -0.219,0.224 -0.485,0.336 -0.797,0.336 -0.313,0 -0.581,-0.112 -0.805,-0.336"
     class="NoteDot" />
  <path
     id="path244"
     d="m 285.18734,68.955689 c -0.224,-0.2239 -0.336,-0.4921 -0.336,-0.8046 0,-0.3125 0.112,-0.5808 0.336,-0.8047 0.224,-0.224 0.492,-0.336 0.805,-0.336 0.312,0 0.578,0.112 0.797,0.336 0.218,0.2239 0.328,0.4922 0.328,0.8047 0,0.3125 -0.11,0.5807 -0.328,0.8046 -0.219,0.224 -0.485,0.336 -0.797,0.336 -0.313,0 -0.581,-0.112 -0.805,-0.336"
     class="NoteDot" />
  <path
     id="path246"
     d="m 223.12834,88.955689 c -0.224,-0.2239 -0.336,-0.4921 -0.336,-0.8046 0,-0.3125 0.112,-0.5808 0.336,-0.8047 0.224,-0.224 0.492,-0.336 0.804,-0.336 0.313,0 0.578,0.112 0.797,0.336 0.219,0.2239 0.328,0.4922 0.328,0.8047 0,0.3125 -0.109,0.5807 -0.328,0.8046 -0.219,0.224 -0.484,0.336 -0.797,0.336 -0.312,0 -0.58,-0.112 -0.804,-0.336"
     class="NoteDot" />
  <path
     id="path248"
     d="m 62.477943,53.955689 c -0.2239,-0.2239 -0.3359,-0.4921 -0.3359,-0.8046 0,-0.3125 0.112,-0.5808 0.3359,-0.8047 0.224,-0.224 0.4922,-0.336 0.8047,-0.336 0.3125,0 0.5782,0.112 0.7969,0.336 0.2188,0.2239 0.3281,0.4922 0.3281,0.8047 0,0.3125 -0.1093,0.5807 -0.3281,0.8046 -0.2187,0.224 -0.4844,0.336 -0.7969,0.336 -0.3125,0 -0.5807,-0.112 -0.8047,-0.336"
     class="NoteDot" />
</svg>
