<?xml version="1.0" encoding="UTF-8" standalone="no"?>
<svg
   xmlns:dc="http://purl.org/dc/elements/1.1/"
   xmlns:cc="http://creativecommons.org/ns#"
   xmlns:rdf="http://www.w3.org/1999/02/22-rdf-syntax-ns#"
   xmlns:svg="http://www.w3.org/2000/svg"
   xmlns="http://www.w3.org/2000/svg"
   id="svg188"
   version="1.2"
   viewBox="0 0 570.276 101.89"
   height="101.89001"
   width="570.276">
  <metadata
     id="metadata194">
    <rdf:RDF>
      <cc:Work
         rdf:about="">
        <dc:format>image/svg+xml</dc:format>
        <dc:type
           rdf:resource="http://purl.org/dc/dcmitype/StillImage" />
        <dc:title>random-limitedRange</dc:title>
      </cc:Work>
    </rdf:RDF>
  </metadata>
  <defs
     id="defs192" />
  <title
     id="title2">random-limitedRange</title>
  <desc
     id="desc4">Generated by MuseScore 2.1.0</desc>
  <polyline
     transform="translate(-9.8101591,-19.523572)"
     style="fill:none;stroke:#000000;stroke-width:0.40000001;stroke-linejoin:bevel"
     id="polyline6"
     points="28.3465,63.3465 566.929,63.3465"
     class="StaffLines" />
  <polyline
     transform="translate(-9.8101591,-19.523572)"
     style="fill:none;stroke:#000000;stroke-width:0.40000001;stroke-linejoin:bevel"
     id="polyline8"
     points="28.3465,68.3465 566.929,68.3465"
     class="StaffLines" />
  <polyline
     transform="translate(-9.8101591,-19.523572)"
     style="fill:none;stroke:#000000;stroke-width:0.40000001;stroke-linejoin:bevel"
     id="polyline10"
     points="28.3465,73.3465 566.929,73.3465"
     class="StaffLines" />
  <polyline
     transform="translate(-9.8101591,-19.523572)"
     style="fill:none;stroke:#000000;stroke-width:0.40000001;stroke-linejoin:bevel"
     id="polyline12"
     points="28.3465,78.3465 566.929,78.3465"
     class="StaffLines" />
  <polyline
     transform="translate(-9.8101591,-19.523572)"
     style="fill:none;stroke:#000000;stroke-width:0.40000001;stroke-linejoin:bevel"
     id="polyline14"
     points="28.3465,83.3465 566.929,83.3465"
     class="StaffLines" />
  <path
     style="fill-rule:evenodd;stroke:#000000;stroke-width:0.34999999;stroke-linecap:round;stroke-linejoin:round"
     id="path16"
     d="m 471.84884,35.073183 c 5.731,-4.75593 22.925,-4.75593 28.657,0 -5.732,-3.95592 -22.926,-3.95592 -28.657,0"
     class="SlurSegment" />
  <path
     style="fill-rule:evenodd;stroke:#000000;stroke-width:0.34999999;stroke-linecap:round;stroke-linejoin:round"
     id="path18"
     d="m 450.82684,35.073183 c 3.809,-3.29522 15.238,-3.29522 19.047,0 -3.809,-2.49521 -15.238,-2.49521 -19.047,0"
     class="SlurSegment" />
  <path
     style="fill-rule:evenodd;stroke:#000000;stroke-width:0.34999999;stroke-linecap:round;stroke-linejoin:round"
     id="path20"
     d="m 413.19884,66.740143 c 4.712,-3.98132 18.849,-3.98132 23.561,0 -4.712,-3.18132 -18.849,-3.18132 -23.561,0"
     class="SlurSegment" />
  <path
     style="fill-rule:evenodd;stroke:#000000;stroke-width:0.34999999;stroke-linecap:round;stroke-linejoin:round"
     id="path22"
     d="m 381.49784,72.573373 c 5.271,3.60591 21.083,3.60591 26.354,0 -5.271,4.40592 -21.083,4.40592 -26.354,0"
     class="SlurSegment" />
  <path
     style="fill-rule:evenodd;stroke:#000000;stroke-width:0.34999999;stroke-linecap:round;stroke-linejoin:round"
     id="path24"
     d="m 334.29384,67.573343 c 5.738,3.96062 22.951,3.96062 28.688,0 -5.737,4.76062 -22.95,4.76062 -28.688,0"
     class="SlurSegment" />
  <path
     style="fill-rule:evenodd;stroke:#000000;stroke-width:0.34999999;stroke-linecap:round;stroke-linejoin:round"
     id="path26"
     d="m 268.76784,25.073133 c 7.872,-6.38312 31.49,-6.38312 39.362,0 -7.872,-5.58313 -31.49,-5.58313 -39.362,0"
     class="SlurSegment" />
  <path
     style="fill-rule:evenodd;stroke:#000000;stroke-width:0.34999999;stroke-linecap:round;stroke-linejoin:round"
     id="path28"
     d="m 252.99084,25.073133 c 2.738,-2.48161 10.955,-2.48161 13.694,0 -2.739,-1.68161 -10.956,-1.68161 -13.694,0"
     class="SlurSegment" />
  <path
     style="fill-rule:evenodd;stroke:#000000;stroke-width:0.34999999;stroke-linecap:round;stroke-linejoin:round"
     id="path30"
     d="m 163.79684,72.573373 c 2.958,1.8479 11.831,1.8479 14.789,0 -2.958,2.64791 -11.831,2.64791 -14.789,0"
     class="SlurSegment" />
  <polyline
     transform="translate(-9.8101591,-19.523572)"
     style="stroke:#000000;stroke-width:0.80000001;stroke-linejoin:bevel"
     id="polyline32"
     points="566.529,63.3465 566.529,83.3465"
     class="BarLine" />
  <polyline
     transform="translate(-9.8101591,-19.523572)"
     style="stroke:#000000;stroke-width:0.80000001;stroke-linejoin:bevel"
     id="polyline34"
     points="501.486,63.3465 501.486,83.3465"
     class="BarLine" />
  <polyline
     transform="translate(-9.8101591,-19.523572)"
     style="stroke:#000000;stroke-width:0.80000001;stroke-linejoin:bevel"
     id="polyline36"
     points="408.832,63.3465 408.832,83.3465"
     class="BarLine" />
  <polyline
     transform="translate(-9.8101591,-19.523572)"
     style="stroke:#000000;stroke-width:0.80000001;stroke-linejoin:bevel"
     id="polyline38"
     points="309.236,63.3465 309.236,83.3465"
     class="BarLine" />
  <polyline
     transform="translate(-9.8101591,-19.523572)"
     style="stroke:#000000;stroke-width:0.80000001;stroke-linejoin:bevel"
     id="polyline40"
     points="221.446,63.3465 221.446,83.3465"
     class="BarLine" />
  <polyline
     transform="translate(-9.8101591,-19.523572)"
     style="stroke:#000000;stroke-width:0.80000001;stroke-linejoin:bevel"
     id="polyline42"
     points="129.844,63.3465 129.844,83.3465"
     class="BarLine" />
  <path
     id="path44"
     d="m 373.92384,75.057683 c 0,0.25 -0.123,0.375 -0.368,0.375 -0.244,0 -0.367,-0.125 -0.367,-0.375 v -2.89062 l -1.656,0.62501 v 3.15631 c 0,0.25 -0.125,0.375 -0.375,0.375 -0.25,0 -0.375,-0.125 -0.375,-0.375 v -2.90631 l -0.625,0.2344 c -0.01,0.0104 -0.063,0.0156 -0.156,0.0156 -0.104,0 -0.196,-0.0391 -0.274,-0.1172 -0.078,-0.0781 -0.117,-0.1693 -0.117,-0.2734 v -1.20311 c 0,-0.198 0.083,-0.323 0.25,-0.375 l 0.922,-0.3125 v -3.20322 l -0.625,0.2188 c -0.01,0.0104 -0.063,0.0156 -0.156,0.0156 -0.104,0 -0.196,-0.0391 -0.274,-0.1172 -0.078,-0.0781 -0.117,-0.1693 -0.117,-0.2734 v -1.21881 c 0,-0.1771 0.083,-0.2916 0.25,-0.3437 l 0.922,-0.3594 v -3.14061 c 0,-0.25001 0.125,-0.37501 0.375,-0.37501 0.25,0 0.375,0.125 0.375,0.37501 v 2.89061 l 1.656,-0.625 v -3.15622 c 0,-0.25 0.123,-0.375 0.367,-0.375 0.245,0 0.368,0.125 0.368,0.375 v 2.90622 l 0.656,-0.23441 c 0.01,-0.0104 0.052,-0.0156 0.125,-0.0156 0.094,0 0.193,0.0365 0.297,0.1094 0.083,0.0833 0.125,0.17711 0.125,0.28121 v 1.2032 c 0,0.1875 -0.094,0.3125 -0.282,0.375 l -0.921,0.31251 v 3.20311 l 0.656,-0.2188 c 0.01,-0.0104 0.052,-0.0156 0.125,-0.0156 0.094,0 0.193,0.0417 0.297,0.125 0.083,0.0729 0.125,0.1615 0.125,0.2656 v 1.21881 c 0,0.1666 -0.094,0.2812 -0.282,0.3437 l -0.921,0.3594 v 3.14062 m -0.735,-8.12504 -1.656,0.5782 v 3.20312 l 1.656,-0.57811 v -3.20321"
     class="Accidental" />
  <path
     id="path46"
     d="m 325.16784,62.995123 v 1.54691 c 0,0.5521 0.026,0.9896 0.078,1.3125 0.427,-0.3646 0.734,-0.6354 0.922,-0.8125 0.208,-0.2083 0.417,-0.4974 0.625,-0.86721 0.208,-0.3698 0.312,-0.737 0.312,-1.1015 0,-0.3646 -0.078,-0.67711 -0.234,-0.93751 -0.156,-0.2605 -0.364,-0.3907 -0.625,-0.3907 -0.312,0 -0.573,0.1198 -0.781,0.3594 -0.198,0.2604 -0.297,0.55731 -0.297,0.89061 m -0.828,3.57822 -0.25,-11.89076 c 0.187,-0.1041 0.372,-0.1562 0.555,-0.1562 0.182,0 0.362,0.0521 0.539,0.1562 l -0.157,6.89073 c 0.532,-0.4584 1.146,-0.6875 1.844,-0.6875 0.5,0 0.919,0.2083 1.258,0.625 0.338,0.4166 0.508,0.8958 0.508,1.43751 0,0.3333 -0.11,0.6927 -0.328,1.0781 -0.209,0.3437 -0.427,0.61461 -0.657,0.81251 -0.135,0.1041 -0.468,0.3646 -1,0.7812 -0.156,0.1146 -0.341,0.25 -0.554,0.4063 -0.214,0.1562 -0.347,0.2552 -0.399,0.2969 -0.094,0.052 -0.182,0.15621 -0.265,0.31251 -0.084,0.1354 -0.188,0.2447 -0.313,0.3281 -0.083,0.0833 -0.19,0.125 -0.32,0.125 -0.13,0 -0.237,-0.0469 -0.321,-0.1406 -0.093,-0.0938 -0.14,-0.2188 -0.14,-0.375"
     class="Accidental" />
  <path
     id="path48"
     d="m 243.09884,27.994943 v 1.54691 c 0,0.5521 0.026,0.98961 0.078,1.31251 0.427,-0.3646 0.735,-0.63541 0.922,-0.81251 0.209,-0.2083 0.417,-0.4974 0.625,-0.8672 0.209,-0.3698 0.313,-0.73701 0.313,-1.10151 0,-0.3646 -0.078,-0.6771 -0.235,-0.9375 -0.156,-0.2605 -0.364,-0.3907 -0.625,-0.3907 -0.312,0 -0.573,0.1198 -0.781,0.3594 -0.198,0.2604 -0.297,0.5573 -0.297,0.8906 m -0.828,3.57822 -0.25,-11.89076 c 0.188,-0.1041 0.373,-0.1562 0.555,-0.1562 0.182,0 0.362,0.0521 0.539,0.1562 l -0.156,6.89074 c 0.531,-0.45841 1.145,-0.68751 1.843,-0.68751 0.5,0 0.92,0.2083 1.258,0.62501 0.339,0.4166 0.508,0.8958 0.508,1.4375 0,0.3333 -0.109,0.69271 -0.328,1.07811 -0.208,0.3437 -0.427,0.6146 -0.656,0.8125 -0.136,0.1041 -0.469,0.3646 -1,0.78121 -0.157,0.1146 -0.341,0.25 -0.555,0.4063 -0.214,0.1562 -0.346,0.2552 -0.398,0.2969 -0.094,0.052 -0.183,0.1562 -0.266,0.3125 -0.083,0.1354 -0.188,0.2447 -0.313,0.3281 -0.083,0.0833 -0.19,0.125 -0.32,0.125 -0.13,0 -0.237,-0.0469 -0.32,-0.1406 -0.094,-0.0938 -0.141,-0.2188 -0.141,-0.375"
     class="Accidental" />
  <path
     id="path50"
     d="m 156.22284,75.057683 c 0,0.25 -0.123,0.375 -0.367,0.375 -0.245,0 -0.368,-0.125 -0.368,-0.375 v -2.89062 l -1.656,0.62501 v 3.15631 c 0,0.25 -0.125,0.375 -0.375,0.375 -0.25,0 -0.375,-0.125 -0.375,-0.375 v -2.90631 l -0.625,0.2344 c -0.01,0.0104 -0.062,0.0156 -0.156,0.0156 -0.104,0 -0.195,-0.0391 -0.274,-0.1172 -0.078,-0.0781 -0.117,-0.1693 -0.117,-0.2734 v -1.20311 c 0,-0.198 0.084,-0.323 0.25,-0.375 l 0.922,-0.3125 v -3.20322 l -0.625,0.2188 c -0.01,0.0104 -0.062,0.0156 -0.156,0.0156 -0.104,0 -0.195,-0.0391 -0.274,-0.1172 -0.078,-0.0781 -0.117,-0.1693 -0.117,-0.2734 v -1.21881 c 0,-0.1771 0.084,-0.2916 0.25,-0.3437 l 0.922,-0.3594 v -3.14061 c 0,-0.25001 0.125,-0.37501 0.375,-0.37501 0.25,0 0.375,0.125 0.375,0.37501 v 2.89061 l 1.656,-0.625 v -3.15622 c 0,-0.25 0.123,-0.375 0.368,-0.375 0.244,0 0.367,0.125 0.367,0.375 v 2.90622 l 0.656,-0.23441 c 0.01,-0.0104 0.052,-0.0156 0.125,-0.0156 0.094,0 0.193,0.0365 0.297,0.1094 0.083,0.0833 0.125,0.17711 0.125,0.28121 v 1.2032 c 0,0.1875 -0.094,0.3125 -0.281,0.375 l -0.922,0.31251 v 3.20311 l 0.656,-0.2188 c 0.01,-0.0104 0.052,-0.0156 0.125,-0.0156 0.094,0 0.193,0.0417 0.297,0.125 0.083,0.0729 0.125,0.1615 0.125,0.2656 v 1.21881 c 0,0.1666 -0.094,0.2812 -0.281,0.3437 l -0.922,0.3594 v 3.14062 m -0.735,-8.12504 -1.656,0.5782 v 3.20312 l 1.656,-0.57811 v -3.20321"
     class="Accidental" />
  <path
     id="path52"
     d="m 123.95584,45.495033 v 1.54691 c 0,0.5521 0.026,0.9896 0.078,1.3125 0.427,-0.3646 0.734,-0.6354 0.922,-0.8125 0.208,-0.2083 0.417,-0.4974 0.625,-0.8672 0.208,-0.36981 0.312,-0.73701 0.312,-1.10151 0,-0.3646 -0.078,-0.6771 -0.234,-0.9375 -0.156,-0.26051 -0.365,-0.39071 -0.625,-0.39071 -0.313,0 -0.573,0.1198 -0.781,0.35941 -0.198,0.2604 -0.297,0.5573 -0.297,0.8906 m -0.828,3.57822 -0.25,-11.89076 c 0.187,-0.1041 0.372,-0.1562 0.554,-0.1562 0.183,0 0.362,0.0521 0.539,0.1562 l -0.156,6.89073 c 0.531,-0.4584 1.146,-0.6875 1.844,-0.6875 0.5,0 0.919,0.2083 1.258,0.625 0.338,0.4166 0.508,0.89581 0.508,1.43751 0,0.3333 -0.11,0.6927 -0.329,1.07811 -0.208,0.3437 -0.427,0.6146 -0.656,0.8125 -0.135,0.1041 -0.469,0.3646 -1,0.7812 -0.156,0.1146 -0.341,0.25 -0.554,0.40631 -0.214,0.1562 -0.347,0.2552 -0.399,0.2969 -0.094,0.052 -0.182,0.1562 -0.266,0.3125 -0.083,0.1354 -0.187,0.2447 -0.312,0.3281 -0.083,0.0833 -0.19,0.125 -0.32,0.125 -0.131,0 -0.237,-0.0469 -0.321,-0.1406 -0.093,-0.0938 -0.14,-0.2188 -0.14,-0.375"
     class="Accidental" />
  <path
     id="path54"
     d="m 84.779941,45.495033 v 1.54691 c 0,0.5521 0.0261,0.9896 0.0782,1.3125 0.4271,-0.3646 0.7343,-0.6354 0.9218,-0.8125 0.2084,-0.2083 0.4167,-0.4974 0.625,-0.8672 0.2084,-0.36981 0.3125,-0.73701 0.3125,-1.10151 0,-0.3646 -0.0781,-0.6771 -0.2343,-0.9375 -0.1563,-0.26051 -0.3646,-0.39071 -0.625,-0.39071 -0.3125,0 -0.5729,0.1198 -0.7813,0.35941 -0.1979,0.2604 -0.2969,0.5573 -0.2969,0.8906 m -0.8281,3.57822 -0.25,-11.89076 c 0.1875,-0.1041 0.3724,-0.1562 0.5547,-0.1562 0.1823,0 0.362,0.0521 0.5391,0.1562 l -0.1563,6.89073 c 0.5313,-0.4584 1.1459,-0.6875 1.8438,-0.6875 0.5,0 0.9192,0.2083 1.257802,0.625 0.3385,0.4166 0.5078,0.89581 0.5078,1.43751 0,0.3333 -0.1094,0.6927 -0.3281,1.07811 -0.2084,0.3437 -0.427102,0.6146 -0.656302,0.8125 -0.1354,0.1041 -0.4687,0.3646 -1,0.7812 -0.1562,0.1146 -0.3411,0.25 -0.5547,0.40631 -0.2135,0.1562 -0.3463,0.2552 -0.3984,0.2969 -0.0938,0.052 -0.1823,0.1562 -0.2656,0.3125 -0.0834,0.1354 -0.1875,0.2447 -0.3125,0.3281 -0.0834,0.0833 -0.1901,0.125 -0.3203,0.125 -0.1302,0 -0.237,-0.0469 -0.3204,-0.1406 -0.0937,-0.0938 -0.1406,-0.2188 -0.1406,-0.375"
     class="Accidental" />
  <path
     id="path56"
     d="m 57.036341,57.557593 c 0,0.25 -0.1224,0.375 -0.3672,0.375 -0.2448,0 -0.3672,-0.125 -0.3672,-0.375 v -2.89061 l -1.6563,0.625 v 3.15631 c 0,0.25001 -0.125,0.37501 -0.375,0.37501 -0.25,0 -0.375,-0.125 -0.375,-0.37501 v -2.90631 l -0.625,0.2344 c -0.0104,0.0104 -0.0625,0.0156 -0.1562,0.0156 -0.1042,0 -0.1953,-0.0391 -0.2735,-0.1172 -0.0781,-0.0781 -0.1171,-0.1693 -0.1171,-0.2734 v -1.20311 c 0,-0.198 0.0833,-0.323 0.25,-0.375 l 0.9218,-0.3125 v -3.20322 l -0.625,0.21881 c -0.0104,0.0104 -0.0625,0.0156 -0.1562,0.0156 -0.1042,0 -0.1953,-0.0391 -0.2735,-0.11721 -0.0781,-0.0781 -0.1171,-0.1693 -0.1171,-0.2734 v -1.2188 c 0,-0.1771 0.0833,-0.2916 0.25,-0.3437 l 0.9218,-0.35941 v -3.14061 c 0,-0.25 0.125,-0.375 0.375,-0.375 0.25,0 0.375,0.125 0.375,0.375 v 2.89061 l 1.6563,-0.625 v -3.15622 c 0,-0.25 0.1224,-0.375 0.3672,-0.375 0.2448,0 0.3672,0.125 0.3672,0.375 v 2.90622 l 0.6562,-0.2344 c 0.0104,-0.0104 0.0521,-0.0156 0.125,-0.0156 0.0938,0 0.1927,0.0365 0.2969,0.1094 0.0833,0.0833 0.125,0.1771 0.125,0.2812 v 1.2032 c 0,0.18751 -0.0938,0.31251 -0.2813,0.37501 l -0.9218,0.3125 v 3.20311 l 0.6562,-0.2188 c 0.0104,-0.0104 0.0521,-0.0156 0.125,-0.0156 0.0938,0 0.1927,0.0417 0.2969,0.125 0.0833,0.0729 0.125,0.1615 0.125,0.26561 v 1.2188 c 0,0.1666 -0.0938,0.2812 -0.2813,0.3437 l -0.9218,0.3594 v 3.14062 m -0.7344,-8.12504 -1.6563,0.5782 v 3.20312 l 1.6563,-0.5781 v -3.20322"
     class="Accidental" />
  <polyline
     transform="translate(-9.8101591,-19.523572)"
     style="stroke:#000000;stroke-width:0.80000001;stroke-linecap:square;stroke-linejoin:bevel"
     id="polyline58"
     points="506.386,58.3465 516.329,58.3465"
     class="LedgerLine" />
  <polyline
     transform="translate(-9.8101591,-19.523572)"
     style="stroke:#000000;stroke-width:0.80000001;stroke-linecap:square;stroke-linejoin:bevel"
     id="polyline60"
     points="475.88,58.3465 485.463,58.3465"
     class="LedgerLine" />
  <polyline
     transform="translate(-9.8101591,-19.523572)"
     style="stroke:#000000;stroke-width:0.80000001;stroke-linecap:square;stroke-linejoin:bevel"
     id="polyline62"
     points="454.858,58.3465 464.441,58.3465"
     class="LedgerLine" />
  <polyline
     transform="translate(-9.8101591,-19.523572)"
     style="stroke:#000000;stroke-width:0.80000001;stroke-linecap:square;stroke-linejoin:bevel"
     id="polyline64"
     points="444.083,88.3465 453.666,88.3465"
     class="LedgerLine" />
  <polyline
     transform="translate(-9.8101591,-19.523572)"
     style="stroke:#000000;stroke-width:0.80000001;stroke-linecap:square;stroke-linejoin:bevel"
     id="polyline66"
     points="413.732,88.3465 423.676,88.3465"
     class="LedgerLine" />
  <polyline
     transform="translate(-9.8101591,-19.523572)"
     style="stroke:#000000;stroke-width:0.80000001;stroke-linecap:square;stroke-linejoin:bevel"
     id="polyline68"
     points="385.529,88.3465 395.112,88.3465"
     class="LedgerLine" />
  <polyline
     transform="translate(-9.8101591,-19.523572)"
     style="stroke:#000000;stroke-width:0.80000001;stroke-linecap:square;stroke-linejoin:bevel"
     id="polyline70"
     points="314.136,48.3465 323.719,48.3465"
     class="LedgerLine" />
  <polyline
     transform="translate(-9.8101591,-19.523572)"
     style="stroke:#000000;stroke-width:0.80000001;stroke-linecap:square;stroke-linejoin:bevel"
     id="polyline72"
     points="314.136,53.3465 323.719,53.3465"
     class="LedgerLine" />
  <polyline
     transform="translate(-9.8101591,-19.523572)"
     style="stroke:#000000;stroke-width:0.80000001;stroke-linecap:square;stroke-linejoin:bevel"
     id="polyline74"
     points="314.136,58.3465 323.719,58.3465"
     class="LedgerLine" />
  <polyline
     transform="translate(-9.8101591,-19.523572)"
     style="stroke:#000000;stroke-width:0.80000001;stroke-linecap:square;stroke-linejoin:bevel"
     id="polyline76"
     points="272.564,48.3465 282.508,48.3465"
     class="LedgerLine" />
  <polyline
     transform="translate(-9.8101591,-19.523572)"
     style="stroke:#000000;stroke-width:0.80000001;stroke-linecap:square;stroke-linejoin:bevel"
     id="polyline78"
     points="272.564,53.3465 282.508,53.3465"
     class="LedgerLine" />
  <polyline
     transform="translate(-9.8101591,-19.523572)"
     style="stroke:#000000;stroke-width:0.80000001;stroke-linecap:square;stroke-linejoin:bevel"
     id="polyline80"
     points="272.564,58.3465 282.508,58.3465"
     class="LedgerLine" />
  <polyline
     transform="translate(-9.8101591,-19.523572)"
     style="stroke:#000000;stroke-width:0.80000001;stroke-linecap:square;stroke-linejoin:bevel"
     id="polyline82"
     points="257.022,48.3465 266.605,48.3465"
     class="LedgerLine" />
  <polyline
     transform="translate(-9.8101591,-19.523572)"
     style="stroke:#000000;stroke-width:0.80000001;stroke-linecap:square;stroke-linejoin:bevel"
     id="polyline84"
     points="257.022,53.3465 266.605,53.3465"
     class="LedgerLine" />
  <polyline
     transform="translate(-9.8101591,-19.523572)"
     style="stroke:#000000;stroke-width:0.80000001;stroke-linecap:square;stroke-linejoin:bevel"
     id="polyline86"
     points="257.022,58.3465 266.605,58.3465"
     class="LedgerLine" />
  <polyline
     transform="translate(-9.8101591,-19.523572)"
     style="stroke:#000000;stroke-width:0.80000001;stroke-linecap:square;stroke-linejoin:bevel"
     id="polyline88"
     points="184.466,88.3465 194.409,88.3465"
     class="LedgerLine" />
  <polyline
     transform="translate(-9.8101591,-19.523572)"
     style="stroke:#000000;stroke-width:0.80000001;stroke-linecap:square;stroke-linejoin:bevel"
     id="polyline90"
     points="167.828,88.3465 177.411,88.3465"
     class="LedgerLine" />
  <polyline
     transform="translate(-9.8101591,-19.523572)"
     style="stroke:#000000;stroke-width:0.64999998;stroke-linecap:round;stroke-linejoin:bevel"
     id="polyline92"
     points="508.211,59.1305 508.211,75.8465"
     class="Stem" />
  <polyline
     transform="translate(-9.8101591,-19.523572)"
     style="stroke:#000000;stroke-width:0.64999998;stroke-linecap:round;stroke-linejoin:bevel"
     id="polyline94"
     points="477.705,59.2855 477.705,75.8465"
     class="Stem" />
  <polyline
     transform="translate(-9.8101591,-19.523572)"
     style="stroke:#000000;stroke-width:0.64999998;stroke-linecap:round;stroke-linejoin:bevel"
     id="polyline96"
     points="456.683,59.2855 456.683,98.3465"
     class="Stem" />
  <polyline
     transform="translate(-9.8101591,-19.523572)"
     style="stroke:#000000;stroke-width:0.64999998;stroke-linecap:round;stroke-linejoin:bevel"
     id="polyline98"
     points="445.908,89.2855 445.908,103.346"
     class="Stem" />
  <polyline
     transform="translate(-9.8101591,-19.523572)"
     style="stroke:#000000;stroke-width:0.64999998;stroke-linecap:round;stroke-linejoin:bevel"
     id="polyline100"
     points="421.851,87.5785 421.851,70.8465"
     class="Stem" />
  <polyline
     transform="translate(-9.8101591,-19.523572)"
     style="stroke:#000000;stroke-width:0.64999998;stroke-linecap:round;stroke-linejoin:bevel"
     id="polyline102"
     points="393.287,87.4074 393.287,73.3465"
     class="Stem" />
  <polyline
     transform="translate(-9.8101591,-19.523572)"
     style="stroke:#000000;stroke-width:0.64999998;stroke-linecap:round;stroke-linejoin:bevel"
     id="polyline104"
     points="376.746,82.4074 376.746,68.3465"
     class="Stem" />
  <polyline
     transform="translate(-9.8101591,-19.523572)"
     style="stroke:#000000;stroke-width:0.64999998;stroke-linecap:round;stroke-linejoin:bevel"
     id="polyline106"
     points="346.209,82.5785 346.209,65.8465"
     class="Stem" />
  <polyline
     transform="translate(-9.8101591,-19.523572)"
     style="stroke:#000000;stroke-width:0.64999998;stroke-linecap:round;stroke-linejoin:bevel"
     id="polyline108"
     points="315.961,49.2855 315.961,73.3465"
     class="Stem" />
  <polyline
     transform="translate(-9.8101591,-19.523572)"
     style="stroke:#000000;stroke-width:0.64999998;stroke-linecap:round;stroke-linejoin:bevel"
     id="polyline110"
     points="274.389,49.1305 274.389,73.3465"
     class="Stem" />
  <polyline
     transform="translate(-9.8101591,-19.523572)"
     style="stroke:#000000;stroke-width:0.64999998;stroke-linecap:round;stroke-linejoin:bevel"
     id="polyline112"
     points="258.847,49.2855 258.847,73.3465"
     class="Stem" />
  <polyline
     transform="translate(-9.8101591,-19.523572)"
     style="stroke:#000000;stroke-width:0.64999998;stroke-linecap:round;stroke-linejoin:bevel"
     id="polyline114"
     points="234.104,82.4074 234.104,65.8465"
     class="Stem" />
  <polyline
     transform="translate(-9.8101591,-19.523572)"
     style="stroke:#000000;stroke-width:0.64999998;stroke-linecap:round;stroke-linejoin:bevel"
     id="polyline116"
     points="192.584,87.5785 192.584,70.8465"
     class="Stem" />
  <polyline
     transform="translate(-9.8101591,-19.523572)"
     style="stroke:#000000;stroke-width:0.64999998;stroke-linecap:round;stroke-linejoin:bevel"
     id="polyline118"
     points="175.586,87.4074 175.586,70.8465"
     class="Stem" />
  <polyline
     transform="translate(-9.8101591,-19.523572)"
     style="stroke:#000000;stroke-width:0.64999998;stroke-linecap:round;stroke-linejoin:bevel"
     id="polyline120"
     points="138.703,66.7855 138.703,83.3465"
     class="Stem" />
  <polyline
     transform="translate(-9.8101591,-19.523572)"
     style="stroke:#000000;stroke-width:0.64999998;stroke-linecap:round;stroke-linejoin:bevel"
     id="polyline122"
     points="99.5276,66.6305 99.5276,83.3465"
     class="Stem" />
  <polyline
     transform="translate(-9.8101591,-19.523572)"
     style="stroke:#000000;stroke-width:0.64999998;stroke-linecap:round;stroke-linejoin:bevel"
     id="polyline124"
     points="69.4668,71.6305 69.4668,87.0965"
     class="Stem" />
  <path
     id="path126"
     d="m 504.38784,37.510693 c 0,-0.2188 -0.083,-0.4063 -0.25,-0.5625 -0.177,-0.1667 -0.375,-0.25 -0.594,-0.25 -0.385,0 -1.172,0.3906 -2.359,1.1718 -1.229,0.79171 -1.979,1.35941 -2.25,1.70321 -0.146,0.177 -0.219,0.3645 -0.219,0.5625 0,0.2187 0.089,0.40621 0.266,0.56251 0.156,0.1666 0.349,0.25 0.578,0.25 0.375,0 1.172,-0.3907 2.391,-1.17191 1.197,-0.7813 1.937,-1.34901 2.218,-1.70311 0.146,-0.1667 0.219,-0.3542 0.219,-0.5625 m -1.031,-1.43751 c 1.114,0 1.672,0.47911 1.672,1.43751 0,0.4687 -0.136,1.01561 -0.407,1.64061 -0.27,0.6146 -0.635,1.0833 -1.093,1.40621 -1,0.6771 -2.256,1.0157 -3.766,1.0157 -1.125,0 -1.687,-0.4792 -1.687,-1.43751 0,-0.4271 0.135,-0.9688 0.406,-1.625 0.26,-0.62501 0.625,-1.09901 1.094,-1.42191 1.01,-0.67711 2.27,-1.01561 3.781,-1.01561"
     class="Note" />
  <path
     id="path128"
     d="m 471.96084,36.073183 c 0.625,0 1.156,0.1614 1.594,0.48431 0.395,0.3542 0.593,0.7969 0.593,1.3282 0,0.89581 -0.458,1.73431 -1.375,2.51561 -0.937,0.78121 -1.942,1.17191 -3.015,1.17191 -0.625,0 -1.151,-0.1615 -1.578,-0.4844 -0.407,-0.3542 -0.61,-0.79691 -0.61,-1.32811 0,-0.8959 0.469,-1.73441 1.406,-2.51571 0.917,-0.78121 1.912,-1.17181 2.985,-1.17181"
     class="Note" />
  <path
     id="path130"
     d="m 450.93884,36.073183 c 0.625,0 1.156,0.1614 1.593,0.48431 0.396,0.3542 0.594,0.7969 0.594,1.3282 0,0.89581 -0.458,1.73431 -1.375,2.51561 -0.937,0.78121 -1.943,1.17191 -3.015,1.17191 -0.625,0 -1.151,-0.1615 -1.579,-0.4844 -0.406,-0.3542 -0.609,-0.79691 -0.609,-1.32811 0,-0.8959 0.469,-1.73441 1.406,-2.51571 0.917,-0.78121 1.912,-1.17181 2.985,-1.17181"
     class="Note" />
  <path
     id="path132"
     d="m 440.16384,66.073333 c 0.625,0 1.156,0.1614 1.593,0.48431 0.396,0.3542 0.594,0.7969 0.594,1.3282 0,0.89581 -0.458,1.73431 -1.375,2.51561 -0.937,0.78121 -1.943,1.17191 -3.016,1.17191 -0.625,0 -1.151,-0.1615 -1.578,-0.4844 -0.406,-0.3542 -0.609,-0.79691 -0.609,-1.32811 0,-0.8959 0.469,-1.73441 1.406,-2.51571 0.917,-0.78121 1.912,-1.17181 2.985,-1.17181"
     class="Note" />
  <path
     id="path134"
     d="m 411.73384,67.510843 c 0,-0.2188 -0.083,-0.4063 -0.25,-0.5625 -0.177,-0.1667 -0.375,-0.25 -0.593,-0.25 -0.386,0 -1.172,0.3906 -2.36,1.1718 -1.229,0.79171 -1.979,1.35941 -2.25,1.70321 -0.145,0.177 -0.218,0.3645 -0.218,0.5625 0,0.2187 0.088,0.40621 0.265,0.56251 0.156,0.1666 0.349,0.25 0.578,0.25 0.375,0 1.172,-0.3907 2.391,-1.17191 1.198,-0.7813 1.937,-1.34901 2.219,-1.70311 0.146,-0.1667 0.218,-0.3542 0.218,-0.5625 m -1.031,-1.43751 c 1.115,0 1.672,0.47911 1.672,1.43751 0,0.4687 -0.135,1.01561 -0.406,1.64061 -0.271,0.6146 -0.636,1.0833 -1.094,1.40621 -1,0.6771 -2.255,1.0157 -3.766,1.0157 -1.125,0 -1.687,-0.4792 -1.687,-1.43751 0,-0.4271 0.135,-0.9688 0.406,-1.625 0.261,-0.62501 0.625,-1.09901 1.094,-1.42191 1.01,-0.67711 2.271,-1.01561 3.781,-1.01561"
     class="Note" />
  <path
     id="path136"
     d="m 381.60884,66.073333 c 0.625,0 1.157,0.1614 1.594,0.48431 0.396,0.3542 0.594,0.7969 0.594,1.3282 0,0.89581 -0.458,1.73431 -1.375,2.51561 -0.938,0.78121 -1.943,1.17191 -3.016,1.17191 -0.625,0 -1.151,-0.1615 -1.578,-0.4844 -0.406,-0.3542 -0.609,-0.79691 -0.609,-1.32811 0,-0.8959 0.469,-1.73441 1.406,-2.51571 0.917,-0.78121 1.912,-1.17181 2.984,-1.17181"
     class="Note" />
  <path
     id="path138"
     d="m 365.06884,61.073313 c 0.625,0 1.156,0.1614 1.594,0.4843 0.395,0.3542 0.593,0.7969 0.593,1.32821 0,0.8958 -0.458,1.73431 -1.375,2.51561 -0.937,0.7812 -1.942,1.17191 -3.015,1.17191 -0.625,0 -1.151,-0.16151 -1.578,-0.48441 -0.407,-0.3542 -0.61,-0.7969 -0.61,-1.3281 0,-0.89591 0.469,-1.73441 1.406,-2.51572 0.917,-0.7812 1.912,-1.1718 2.985,-1.1718"
     class="Note" />
  <path
     id="path140"
     d="m 336.09284,62.510823 c 0,-0.21881 -0.083,-0.40631 -0.25,-0.56251 -0.177,-0.1667 -0.375,-0.25 -0.594,-0.25 -0.385,0 -1.172,0.3906 -2.359,1.17181 -1.229,0.7917 -1.979,1.3594 -2.25,1.70321 -0.146,0.177 -0.219,0.3645 -0.219,0.5625 0,0.2187 0.089,0.4062 0.266,0.5625 0.156,0.1666 0.349,0.25 0.578,0.25 0.375,0 1.172,-0.3907 2.39,-1.1719 1.198,-0.78131 1.938,-1.34901 2.219,-1.70311 0.146,-0.1667 0.219,-0.3542 0.219,-0.5625 m -1.031,-1.43751 c 1.114,0 1.672,0.4791 1.672,1.43751 0,0.4687 -0.136,1.0156 -0.407,1.6406 -0.27,0.61461 -0.635,1.08331 -1.093,1.40621 -1,0.6771 -2.256,1.01571 -3.766,1.01571 -1.125,0 -1.688,-0.47921 -1.688,-1.43751 0,-0.4271 0.136,-0.96881 0.407,-1.62501 0.26,-0.625 0.625,-1.09901 1.093,-1.42191 1.011,-0.6771 2.271,-1.0156 3.782,-1.0156"
     class="Note" />
  <path
     id="path142"
     d="m 310.21684,26.073133 c 0.625,0 1.156,0.1614 1.593,0.48431 0.396,0.3542 0.594,0.7969 0.594,1.3282 0,0.89581 -0.458,1.73431 -1.375,2.51561 -0.937,0.78121 -1.943,1.17191 -3.016,1.17191 -0.625,0 -1.151,-0.1615 -1.578,-0.4844 -0.406,-0.3542 -0.609,-0.79691 -0.609,-1.32811 0,-0.8959 0.469,-1.73441 1.406,-2.51571 0.917,-0.78121 1.912,-1.17181 2.985,-1.17181"
     class="Note" />
  <path
     id="path144"
     d="m 270.56684,27.510643 c 0,-0.2188 -0.083,-0.4063 -0.25,-0.5625 -0.177,-0.1667 -0.375,-0.25 -0.594,-0.25 -0.385,0 -1.172,0.3906 -2.359,1.1718 -1.229,0.79171 -1.979,1.35941 -2.25,1.70321 -0.146,0.177 -0.219,0.3645 -0.219,0.5625 0,0.2187 0.089,0.40621 0.266,0.56251 0.156,0.1666 0.349,0.25 0.578,0.25 0.375,0 1.172,-0.3907 2.39,-1.17191 1.198,-0.7813 1.938,-1.34901 2.219,-1.70311 0.146,-0.1667 0.219,-0.3542 0.219,-0.5625 m -1.031,-1.43751 c 1.114,0 1.672,0.47911 1.672,1.43751 0,0.4687 -0.136,1.01561 -0.407,1.64061 -0.27,0.6146 -0.635,1.0833 -1.093,1.40621 -1,0.6771 -2.256,1.0157 -3.766,1.0157 -1.125,0 -1.688,-0.4792 -1.688,-1.43751 0,-0.4271 0.136,-0.9688 0.407,-1.625 0.26,-0.62501 0.625,-1.09901 1.093,-1.42191 1.011,-0.67711 2.271,-1.01561 3.782,-1.01561"
     class="Note" />
  <path
     id="path146"
     d="m 253.10184,26.073133 c 0.625,0 1.157,0.1614 1.594,0.48431 0.396,0.3542 0.594,0.7969 0.594,1.3282 0,0.89581 -0.458,1.73431 -1.375,2.51561 -0.938,0.78121 -1.943,1.17191 -3.016,1.17191 -0.625,0 -1.151,-0.1615 -1.578,-0.4844 -0.406,-0.3542 -0.609,-0.79691 -0.609,-1.32811 0,-0.8959 0.469,-1.73441 1.406,-2.51571 0.917,-0.78121 1.911,-1.17181 2.984,-1.17181"
     class="Note" />
  <path
     id="path148"
     d="m 222.42684,61.073313 c 0.625,0 1.156,0.1614 1.594,0.4843 0.395,0.3542 0.593,0.7969 0.593,1.32821 0,0.8958 -0.458,1.73431 -1.375,2.51561 -0.937,0.7812 -1.942,1.17191 -3.015,1.17191 -0.625,0 -1.151,-0.16151 -1.578,-0.48441 -0.407,-0.3542 -0.61,-0.7969 -0.61,-1.3281 0,-0.89591 0.469,-1.73441 1.406,-2.51572 0.917,-0.7812 1.912,-1.1718 2.985,-1.1718"
     class="Note" />
  <path
     id="path150"
     d="m 182.46784,67.510843 c 0,-0.2188 -0.083,-0.4063 -0.25,-0.5625 -0.177,-0.1667 -0.375,-0.25 -0.594,-0.25 -0.385,0 -1.172,0.3906 -2.359,1.1718 -1.229,0.79171 -1.979,1.35941 -2.25,1.70321 -0.146,0.177 -0.219,0.3645 -0.219,0.5625 0,0.2187 0.089,0.40621 0.266,0.56251 0.156,0.1666 0.349,0.25 0.578,0.25 0.375,0 1.172,-0.3907 2.391,-1.17191 1.198,-0.7813 1.937,-1.34901 2.218,-1.70311 0.146,-0.1667 0.219,-0.3542 0.219,-0.5625 m -1.031,-1.43751 c 1.114,0 1.672,0.47911 1.672,1.43751 0,0.4687 -0.136,1.01561 -0.407,1.64061 -0.27,0.6146 -0.635,1.0833 -1.093,1.40621 -1,0.6771 -2.255,1.0157 -3.766,1.0157 -1.125,0 -1.687,-0.4792 -1.687,-1.43751 0,-0.4271 0.135,-0.9688 0.406,-1.625 0.26,-0.62501 0.625,-1.09901 1.094,-1.42191 1.01,-0.67711 2.27,-1.01561 3.781,-1.01561"
     class="Note" />
  <path
     id="path152"
     d="m 163.90884,66.073333 c 0.625,0 1.156,0.1614 1.593,0.48431 0.396,0.3542 0.594,0.7969 0.594,1.3282 0,0.89581 -0.458,1.73431 -1.375,2.51561 -0.937,0.78121 -1.942,1.17191 -3.015,1.17191 -0.625,0 -1.151,-0.1615 -1.579,-0.4844 -0.406,-0.3542 -0.609,-0.79691 -0.609,-1.32811 0,-0.8959 0.469,-1.73441 1.406,-2.51571 0.917,-0.78121 1.912,-1.17181 2.985,-1.17181"
     class="Note" />
  <path
     id="path154"
     d="m 132.95884,43.573223 c 0.625,0 1.156,0.1614 1.594,0.4843 0.396,0.3542 0.593,0.79691 0.593,1.32821 0,0.8958 -0.458,1.73431 -1.375,2.51561 -0.937,0.78121 -1.942,1.17191 -3.015,1.17191 -0.625,0 -1.151,-0.1615 -1.578,-0.4844 -0.407,-0.35421 -0.61,-0.79691 -0.61,-1.32811 0,-0.89591 0.469,-1.73441 1.407,-2.51571 0.916,-0.78121 1.911,-1.17181 2.984,-1.17181"
     class="Note" />
  <path
     id="path156"
     d="m 95.704838,45.010733 c 0,-0.2188 -0.083,-0.4063 -0.25,-0.56251 -0.177,-0.1667 -0.375,-0.25 -0.594,-0.25 -0.385,0 -1.171,0.39061 -2.359,1.17181 -1.229,0.7917 -1.979,1.35941 -2.25,1.70321 -0.1458,0.177 -0.2187,0.3645 -0.2187,0.5625 0,0.2187 0.0885,0.4062 0.2657,0.5625 0.156,0.1666 0.349,0.25 0.578,0.25 0.375,0 1.172,-0.3907 2.391,-1.1719 1.198,-0.7813 1.937,-1.34901 2.218,-1.70311 0.146,-0.1667 0.219,-0.3542 0.219,-0.5625 m -1.031,-1.43751 c 1.114,0 1.672,0.4791 1.672,1.43751 0,0.4687 -0.136,1.0156 -0.406,1.64061 -0.271,0.6146 -0.636,1.0833 -1.094,1.4062 -1,0.67711 -2.255,1.01571 -3.766,1.01571 -1.1249,0 -1.6874,-0.4792 -1.6874,-1.43751 0,-0.4271 0.1355,-0.9688 0.4063,-1.62501 0.2604,-0.625 0.6251,-1.099 1.0941,-1.4219 1.01,-0.67711 2.27,-1.01561 3.781,-1.01561"
     class="Note" />
  <path
     id="path158"
     d="m 65.644141,50.010753 c 0,-0.2188 -0.0834,-0.4063 -0.25,-0.5625 -0.1771,-0.1667 -0.375,-0.25 -0.5938,-0.25 -0.3854,0 -1.1719,0.3906 -2.3594,1.1718 -1.2291,0.79171 -1.9791,1.35941 -2.25,1.70321 -0.1458,0.177 -0.2187,0.3645 -0.2187,0.56251 0,0.2187 0.0885,0.4062 0.2656,0.5625 0.1563,0.1666 0.349,0.25 0.5781,0.25 0.375,0 1.1719,-0.3907 2.3907,-1.17191 1.1979,-0.7813 1.9375,-1.349 2.2187,-1.7031 0.1459,-0.16671 0.2188,-0.35421 0.2188,-0.56251 m -1.0313,-1.4375 c 1.1146,0 1.6719,0.4791 1.6719,1.4375 0,0.46871 -0.1354,1.01561 -0.4063,1.64061 -0.2708,0.6146 -0.6354,1.08331 -1.0937,1.40621 -1,0.6771 -2.2552,1.0157 -3.7656,1.0157 -1.125,0 -1.6875,-0.4792 -1.6875,-1.4375 0,-0.42711 0.1354,-0.96881 0.4062,-1.62501 0.2604,-0.62501 0.625,-1.09901 1.0938,-1.42191 1.0104,-0.6771 2.2708,-1.0156 3.7812,-1.0156"
     class="Note" />
  <path
     id="path160"
     d="m 29.080041,53.698273 c 0,0 0.0417,0 0.125,0 0.0521,-0.0105 0.0938,-0.0157 0.125,-0.0157 1.4583,0 2.6563,0.5157 3.5938,1.54691 0.9375,1.0104 1.4062,2.19271 1.4062,3.54692 0,1.6875 -0.6927,3.05731 -2.0781,4.10942 -0.3646,0.2916 -0.8438,0.526 -1.4375,0.7031 0.0729,0.8437 0.1094,1.52601 0.1094,2.04691 0,0.1041 -0.0157,0.4843 -0.0469,1.14061 -0.0521,1.2083 -0.4688,2.25521 -1.25,3.14061 -0.75,0.87501 -1.6875,1.31251 -2.8125,1.31251 -1.0521,0 -1.9479,-0.3698 -2.6875,-1.10941 -0.75,-0.7604 -1.125,-1.67181 -1.125,-2.73431 0,-0.5625 0.2187,-1.04171 0.6562,-1.43751 0.4375,-0.3855 0.9479,-0.5782 1.5313,-0.5782 0.5208,0 0.9583,0.2032 1.3125,0.6094 0.3646,0.375 0.5469,0.84381 0.5469,1.40631 0,0.5 -0.1823,0.9322 -0.5469,1.29681 -0.3646,0.3646 -0.8021,0.5469 -1.3125,0.5469 -0.2084,0 -0.4063,-0.0365 -0.5938,-0.1094 0.5729,0.8438 1.3334,1.2657 2.2813,1.2657 0.8958,0 1.6302,-0.3646 2.2031,-1.0938 0.6042,-0.75 0.9323,-1.63021 0.9844,-2.64061 0.0208,-0.62501 0.0312,-0.97921 0.0312,-1.06251 0,-0.7292 -0.026,-1.32811 -0.0781,-1.79691 -0.6458,0.1042 -1.224,0.1563 -1.7344,0.1563 -1.8125,0 -3.3541,-0.7188 -4.625,-2.15631 -1.25,-1.44791 -1.875,-3.16671 -1.875,-5.15622 0,-0.41671 0.0365,-0.83861 0.1094,-1.26571 0.0833,-0.3541 0.1823,-0.7396 0.2969,-1.15621 0.0625,-0.2396 0.2396,-0.6198 0.5312,-1.1406 0.1042,-0.1563 0.2214,-0.3516 0.3516,-0.586 0.1302,-0.23441 0.2213,-0.38801 0.2734,-0.46091 0.125,-0.2604 0.375,-0.6146 0.75,-1.0625 0.1042,-0.1146 0.2136,-0.2422 0.3282,-0.3828 0.1145,-0.14071 0.2109,-0.25781 0.289,-0.35161 0.0781,-0.0937 0.1354,-0.1667 0.1719,-0.2187 0.0365,-0.0521 0.3307,-0.3959 0.8828,-1.0313 0.125,-0.1354 0.25,-0.276 0.375,-0.4219 0.125,-0.14581 0.2266,-0.26301 0.3047,-0.35151 0.0781,-0.0886 0.138,-0.1485 0.1797,-0.1797 -0.4688,-1.55211 -0.7656,-2.79171 -0.8906,-3.71882 -0.0834,-0.7396 -0.125,-1.7552 -0.125,-3.04681 0,-1.13551 0.2604,-2.19801 0.7812,-3.18752 0.5,-1.0209 1.2083,-1.85941 2.125,-2.51571 0.0625,-0.0416 0.125,-0.0625 0.1875,-0.0625 0.0938,0 0.1615,0.0209 0.2031,0.0625 0.6979,0.8438 1.3021,1.94271 1.8125,3.29692 0.5209,1.3542 0.7813,2.58851 0.7813,3.70312 0,1.25 -0.2969,2.42191 -0.8906,3.51571 -0.6771,1.15621 -1.5521,2.35411 -2.625,3.59372 0.2708,0.85421 0.6354,2.19791 1.0937,4.03132 m 1.6563,9.09375 c 0.677,-0.25 1.2083,-0.67191 1.5937,-1.26561 0.4167,-0.5729 0.625,-1.21881 0.625,-1.93751 0,-0.9271 -0.3125,-1.75001 -0.9375,-2.46881 -0.6458,-0.73961 -1.4635,-1.15621 -2.4531,-1.25001 0.5625,2.75002 0.9531,5.05733 1.1719,6.92194 m -7.5469,-4.51563 c 0,1.29161 0.5208,2.42712 1.5625,3.40622 1.0625,0.94791 2.2604,1.42191 3.5937,1.42191 0.5417,0 1.0729,-0.0417 1.5938,-0.125 -0.2084,-1.97921 -0.6198,-4.34902 -1.2344,-7.10944 -0.7396,0.0834 -1.3281,0.3438 -1.7656,0.78131 -0.4375,0.4583 -0.6563,0.9739 -0.6563,1.5469 0,0.98951 0.5313,1.79161 1.5938,2.40622 0.0833,0.0938 0.125,0.1927 0.125,0.2969 0,0.1041 -0.0417,0.1979 -0.125,0.2812 -0.0834,0.0938 -0.1823,0.1407 -0.2969,0.1407 -0.0104,0 -0.0677,-0.0105 -0.1719,-0.0313 -0.75,-0.4062 -1.3229,-0.92711 -1.7187,-1.56251 -0.3854,-0.6875 -0.5781,-1.37501 -0.5781,-2.06251 0,-0.8958 0.2812,-1.70831 0.8437,-2.43751 0.5833,-0.7292 1.3438,-1.19791 2.2813,-1.40621 -0.3646,-1.45841 -0.6615,-2.59901 -0.8907,-3.42192 -0.2083,0.23961 -0.4583,0.52341 -0.75,0.85151 -0.2916,0.3282 -0.4635,0.5287 -0.5156,0.6016 -0.4687,0.6042 -0.8281,1.07811 -1.0781,1.42191 -0.4479,0.6146 -0.7761,1.1406 -0.9844,1.57811 -0.2187,0.5 -0.4115,1.0417 -0.5781,1.62501 -0.1667,0.5625 -0.25,1.1615 -0.25,1.7969 m 6.5156,-19.8595 c -0.9792,0.47921 -1.7448,1.16671 -2.2969,2.06252 -0.5729,0.9271 -0.8593,1.9219 -0.8593,2.98441 0,0.9375 0.2343,2.20311 0.7031,3.79692 0.9375,-1.13551 1.6406,-2.18231 2.1094,-3.14072 0.4895,-1.0208 0.7343,-2.08331 0.7343,-3.18751 0,-0.83331 -0.1302,-1.67181 -0.3906,-2.51562"
     class="Clef" />
  <path
     id="path162"
     d="m 43.873841,44.073223 c 0.3854,0 0.7161,-0.0443 0.9921,-0.1329 0.2761,-0.0885 0.4506,-0.1328 0.5235,-0.1328 0.0937,0 0.1666,0.0261 0.2187,0.0782 0.0417,0.0312 0.0677,0.0729 0.0782,0.125 0,0.0312 -0.0157,0.0729 -0.0469,0.125 l -5.6719,6.60934 h 3.3281 v -2.62502 c 0,-0.1666 0.0469,-0.3125 0.1407,-0.4375 0.1562,-0.125 0.2864,-0.2031 0.3906,-0.2343 0.1666,-0.073 0.375,-0.2553 0.625,-0.5469 0.2083,-0.2292 0.4583,-0.63541 0.75,-1.21881 0.0312,-0.0833 0.0885,-0.125 0.1719,-0.125 0.1562,0 0.2447,0.0938 0.2656,0.2813 v 4.90623 h 1.4375 c 0.1771,0 0.2812,0.0938 0.3125,0.2813 0,0.1979 -0.1042,0.2969 -0.3125,0.2969 h -1.4375 v 0.1562 c 0,0.5208 0.1302,0.9635 0.3906,1.32811 0.3021,0.3646 0.6563,0.5469 1.0625,0.5469 0.1563,0 0.2344,0.0781 0.2344,0.2344 0,0.1562 -0.0781,0.2344 -0.2344,0.2344 -0.2708,0 -0.7135,-0.0365 -1.3281,-0.1094 -0.5625,-0.0938 -1,-0.1406 -1.3125,-0.1406 -0.3229,0 -0.7604,0.0468 -1.3125,0.1406 -0.5834,0.0729 -1.0156,0.1094 -1.2969,0.1094 -0.1562,0 -0.2344,-0.0782 -0.2344,-0.2344 0,-0.1563 0.0782,-0.2344 0.2344,-0.2344 0.3958,0 0.7448,-0.1823 1.0469,-0.5469 0.2708,-0.36461 0.4062,-0.80731 0.4062,-1.32811 v -0.1562 h -3.3281 c -0.2292,0 -0.3854,-0.0521 -0.4687,-0.1563 -0.1146,-0.0729 -0.1719,-0.1771 -0.1719,-0.3125 0,-0.0417 0.0989,-0.1771 0.2969,-0.40621 0.2291,-0.2605 0.4635,-0.5782 0.7031,-0.9532 0.2916,-0.4479 0.5677,-0.9062 0.8281,-1.37501 0.2813,-0.5312 0.5104,-1.1458 0.6875,-1.84371 0.1875,-0.6979 0.2813,-1.4115 0.2813,-2.14061 0,-0.2084 0.0937,-0.3125 0.2812,-0.3125 0.0417,0 0.125,0.0208 0.25,0.0625 0.0417,0.0104 0.125,0.0286 0.25,0.0546 0.125,0.0261 0.224,0.0495 0.2969,0.0704 0.2396,0.0416 0.4635,0.0625 0.6719,0.0625"
     class="TimeSig" />
  <path
     id="path164"
     d="m 43.873841,54.073273 c 0.3854,0 0.7161,-0.0443 0.9921,-0.1329 0.2761,-0.0885 0.4506,-0.1328 0.5235,-0.1328 0.0937,0 0.1666,0.0261 0.2187,0.0782 0.0417,0.0312 0.0677,0.0729 0.0782,0.125 0,0.0312 -0.0157,0.0729 -0.0469,0.125 l -5.6719,6.60934 h 3.3281 v -2.62502 c 0,-0.1666 0.0469,-0.3125 0.1407,-0.4375 0.1562,-0.125 0.2864,-0.2031 0.3906,-0.2343 0.1666,-0.073 0.375,-0.2553 0.625,-0.5469 0.2083,-0.2292 0.4583,-0.63541 0.75,-1.21881 0.0312,-0.0833 0.0885,-0.125 0.1719,-0.125 0.1562,0 0.2447,0.0938 0.2656,0.2813 v 4.90623 h 1.4375 c 0.1771,0 0.2812,0.0938 0.3125,0.2813 0,0.1979 -0.1042,0.2969 -0.3125,0.2969 h -1.4375 v 0.1562 c 0,0.5208 0.1302,0.9635 0.3906,1.32811 0.3021,0.3646 0.6563,0.5469 1.0625,0.5469 0.1563,0 0.2344,0.0781 0.2344,0.2344 0,0.1562 -0.0781,0.2344 -0.2344,0.2344 -0.2708,0 -0.7135,-0.0365 -1.3281,-0.1094 -0.5625,-0.0938 -1,-0.1406 -1.3125,-0.1406 -0.3229,0 -0.7604,0.0468 -1.3125,0.1406 -0.5834,0.0729 -1.0156,0.1094 -1.2969,0.1094 -0.1562,0 -0.2344,-0.0782 -0.2344,-0.2344 0,-0.1563 0.0782,-0.2344 0.2344,-0.2344 0.3958,0 0.7448,-0.1823 1.0469,-0.5469 0.2708,-0.36461 0.4062,-0.80731 0.4062,-1.32811 v -0.1562 h -3.3281 c -0.2292,0 -0.3854,-0.0521 -0.4687,-0.1563 -0.1146,-0.0729 -0.1719,-0.1771 -0.1719,-0.3125 0,-0.0417 0.0989,-0.1771 0.2969,-0.40621 0.2291,-0.2605 0.4635,-0.5782 0.7031,-0.9532 0.2916,-0.4479 0.5677,-0.9062 0.8281,-1.37501 0.2813,-0.5312 0.5104,-1.1458 0.6875,-1.84371 0.1875,-0.6979 0.2813,-1.4115 0.2813,-2.14061 0,-0.2084 0.0937,-0.3125 0.2812,-0.3125 0.0417,0 0.125,0.0208 0.25,0.0625 0.0417,0.0104 0.125,0.0286 0.25,0.0546 0.125,0.0261 0.224,0.0495 0.2969,0.0704 0.2396,0.0416 0.4635,0.0625 0.6719,0.0625"
     class="TimeSig" />
  <path
     id="path166"
     d="m 534.59984,53.823273 h -7.109 c -0.136,0 -0.203,-0.0678 -0.203,-0.2032 v -2.73431 c 0,-0.125 0.067,-0.1875 0.203,-0.1875 h 7.109 c 0.125,0 0.188,0.0625 0.188,0.1875 v 2.73431 c 0,0.1354 -0.063,0.2032 -0.188,0.2032"
     class="Rest" />
  <path
     style="fill-rule:evenodd"
     id="path168"
     d="m 435.77284,82.572943 11.425,-5.30125 v 2.500009 l -11.425,5.301275 v -2.500034"
     class="Beam" />
  <path
     style="fill-rule:evenodd"
     id="path170"
     d="m 435.77284,78.823403 6.6,-3.06262 v 2.50001 l -6.6,3.062133 v -2.499523"
     class="Beam" />
  <path
     style="fill-rule:evenodd"
     id="path172"
     d="m 366.61084,47.376743 17.191,5.19653 v 2.50001 l -17.191,-5.19653 v -2.50001"
     class="Beam" />
  <path
     style="fill-rule:evenodd"
     id="path174"
     d="m 366.61084,51.126763 6.6,1.99511 v 2.50001 l -6.6,-1.99511 v -2.50001"
     class="Beam" />
  <path
     id="path176"
     d="m 253.25884,39.354403 c 0.302,0 0.625,0.4844 0.968,1.45311 0.323,0.9688 0.485,1.89071 0.485,2.76571 0,0.7395 -0.183,1.47391 -0.547,2.20311 -0.375,0.78121 -0.823,1.45831 -1.344,2.03121 l -1.609,1.79691 c -0.49,0.5729 -0.933,1.23441 -1.328,1.98441 -0.365,0.7291 -0.547,1.47391 -0.547,2.23441 h -0.625 v -5.00002 h 0.625 c 0.354,-0.2188 0.875,-0.57301 1.562,-1.06251 0.313,-0.2292 0.782,-0.6198 1.407,-1.1719 0.51,-0.46881 0.895,-0.94791 1.156,-1.43751 0.271,-0.5209 0.406,-1.04691 0.406,-1.57811 0,-1.23961 -0.359,-2.47401 -1.078,-3.70322 0,0 0,-0.026 0,-0.0781 0,-0.1146 0.042,-0.2083 0.125,-0.2812 0.104,-0.1042 0.219,-0.1563 0.344,-0.1563"
     class="Hook" />
  <path
     id="path178"
     d="m 165.45084,56.323283 v -5.00002 h 0.625 c 0,0.7395 0.146,1.48431 0.437,2.23431 0.313,0.8021 0.657,1.50521 1.032,2.10941 0.27,0.4271 0.682,1.08331 1.234,1.96881 0.417,0.677 0.768,1.38541 1.055,2.12501 0.286,0.73951 0.429,1.48431 0.429,2.23431 0,1.35421 -0.281,2.73442 -0.843,4.14072 -0.094,0.1562 -0.219,0.2343 -0.375,0.2343 -0.125,0 -0.24,-0.0521 -0.344,-0.1562 -0.083,-0.0834 -0.125,-0.1823 -0.125,-0.2969 v -0.0937 c 0.562,-1.2917 0.844,-2.56781 0.844,-3.82822 0,-0.6562 -0.198,-1.3593 -0.594,-2.10931 -0.386,-0.7709 -0.781,-1.3855 -1.188,-1.84381 -0.458,-0.5312 -0.979,-1.1042 -1.562,-1.71871 h -0.625"
     class="Hook" />
  <path
     id="path180"
     d="m 455.21684,37.127793 c -0.224,-0.2239 -0.336,-0.4921 -0.336,-0.80461 0,-0.3125 0.112,-0.5808 0.336,-0.8047 0.224,-0.224 0.492,-0.336 0.804,-0.336 0.313,0 0.579,0.112 0.797,0.336 0.219,0.2239 0.328,0.4922 0.328,0.8047 0,0.31251 -0.109,0.58071 -0.328,0.80461 -0.218,0.224 -0.484,0.336 -0.797,0.336 -0.312,0 -0.58,-0.112 -0.804,-0.336"
     class="NoteDot" />
  <path
     id="path182"
     d="m 385.88784,67.127943 c -0.224,-0.2239 -0.336,-0.4921 -0.336,-0.80461 0,-0.3125 0.112,-0.5808 0.336,-0.8047 0.224,-0.224 0.492,-0.336 0.804,-0.336 0.313,0 0.578,0.112 0.797,0.336 0.219,0.2239 0.328,0.4922 0.328,0.8047 0,0.31251 -0.109,0.58071 -0.328,0.80461 -0.219,0.224 -0.484,0.336 -0.797,0.336 -0.312,0 -0.58,-0.112 -0.804,-0.336"
     class="NoteDot" />
  <path
     id="path184"
     d="m 226.70484,62.127913 c -0.224,-0.2239 -0.336,-0.4921 -0.336,-0.8046 0,-0.3125 0.112,-0.5808 0.336,-0.8047 0.224,-0.22401 0.492,-0.33601 0.805,-0.33601 0.312,0 0.578,0.112 0.797,0.33601 0.218,0.2239 0.328,0.4922 0.328,0.8047 0,0.3125 -0.11,0.5807 -0.328,0.8046 -0.219,0.224 -0.485,0.336 -0.797,0.336 -0.313,0 -0.581,-0.112 -0.805,-0.336"
     class="NoteDot" />
  <path
     id="path186"
     d="m 137.23684,47.127843 c -0.224,-0.2239 -0.336,-0.4921 -0.336,-0.80461 0,-0.3125 0.112,-0.5808 0.336,-0.8047 0.224,-0.224 0.492,-0.336 0.805,-0.336 0.312,0 0.578,0.112 0.797,0.336 0.218,0.2239 0.328,0.4922 0.328,0.8047 0,0.31251 -0.11,0.58071 -0.328,0.80461 -0.219,0.224 -0.485,0.336 -0.797,0.336 -0.313,0 -0.581,-0.112 -0.805,-0.336"
     class="NoteDot" />
</svg>
